<svg width="2250" height="735" viewBox="0 0 2250 735" fill="none" xmlns="http://www.w3.org/2000/svg">
<rect width="2250" height="735" rx="25" fill="white" fill-opacity="0.75"/>
<rect x="1625" y="125" width="500" height="300" rx="20" fill="#292929"/>
<g filter="url(#filter0_d_4_68)">
<path d="M1627.12 277.121C1628.29 275.95 1628.29 274.05 1627.12 272.879L1608.03 253.787C1606.86 252.615 1604.96 252.615 1603.79 253.787C1602.62 254.958 1602.62 256.858 1603.79 258.029L1620.76 275L1603.79 291.971C1602.62 293.142 1602.62 295.042 1603.79 296.213C1604.96 297.385 1606.86 297.385 1608.03 296.213L1627.12 277.121ZM1125 278L1625 278V272L1125 272V278Z" fill="#292929" fill-opacity="0.56"/>
</g>
<rect x="875" y="125" width="500" height="300" rx="20" fill="#292929"/>
<g filter="url(#filter1_d_4_68)">
<path d="M877.121 277.121C878.293 275.95 878.293 274.05 877.121 272.879L858.029 253.787C856.858 252.615 854.958 252.615 853.787 253.787C852.615 254.958 852.615 256.858 853.787 258.029L870.757 275L853.787 291.971C852.615 293.142 852.615 295.042 853.787 296.213C854.958 297.385 856.858 297.385 858.029 296.213L877.121 277.121ZM375 278L875 278L875 272L375 272L375 278Z" fill="#292929" fill-opacity="0.56"/>
</g>
<rect x="125" y="125" width="500" height="300" rx="20" fill="#292929"/>
<path d="M1687.93 290H1678.95V260.909H1688.33C1691.15 260.909 1693.57 261.491 1695.57 262.656C1697.58 263.812 1699.12 265.473 1700.19 267.642C1701.26 269.801 1701.8 272.386 1701.8 275.398C1701.8 278.428 1701.26 281.037 1700.18 283.224C1699.1 285.402 1697.52 287.079 1695.46 288.253C1693.4 289.418 1690.89 290 1687.93 290ZM1682.48 286.875H1687.7C1690.11 286.875 1692.1 286.411 1693.68 285.483C1695.27 284.555 1696.44 283.234 1697.22 281.52C1698 279.806 1698.39 277.765 1698.39 275.398C1698.39 273.049 1698 271.027 1697.24 269.332C1696.47 267.628 1695.32 266.321 1693.8 265.412C1692.27 264.493 1690.37 264.034 1688.1 264.034H1682.48V286.875ZM1706.37 290V268.182H1709.61V271.477H1709.84C1710.23 270.398 1710.95 269.522 1711.99 268.849C1713.04 268.177 1714.21 267.841 1715.52 267.841C1715.76 267.841 1716.07 267.846 1716.44 267.855C1716.81 267.865 1717.09 267.879 1717.28 267.898V271.307C1717.17 271.278 1716.9 271.236 1716.5 271.179C1716.1 271.113 1715.68 271.08 1715.23 271.08C1714.17 271.08 1713.23 271.302 1712.39 271.747C1711.57 272.183 1710.92 272.789 1710.43 273.565C1709.96 274.332 1709.72 275.208 1709.72 276.193V290H1706.37ZM1720.37 290V268.182H1723.72V290H1720.37ZM1722.08 264.545C1721.42 264.545 1720.86 264.323 1720.39 263.878C1719.92 263.433 1719.69 262.898 1719.69 262.273C1719.69 261.648 1719.92 261.113 1720.39 260.668C1720.86 260.223 1721.42 260 1722.08 260C1722.73 260 1723.29 260.223 1723.75 260.668C1724.23 261.113 1724.46 261.648 1724.46 262.273C1724.46 262.898 1724.23 263.433 1723.75 263.878C1723.29 264.323 1722.73 264.545 1722.08 264.545ZM1738.47 268.182V271.023H1727.17V268.182H1738.47ZM1730.46 262.955H1733.81V283.75C1733.81 284.697 1733.95 285.407 1734.23 285.881C1734.51 286.345 1734.87 286.657 1735.31 286.818C1735.75 286.97 1736.22 287.045 1736.71 287.045C1737.08 287.045 1737.38 287.027 1737.62 286.989C1737.86 286.941 1738.05 286.903 1738.19 286.875L1738.87 289.886C1738.64 289.972 1738.33 290.057 1737.92 290.142C1737.51 290.237 1737 290.284 1736.37 290.284C1735.42 290.284 1734.5 290.08 1733.59 289.673C1732.69 289.266 1731.94 288.646 1731.34 287.812C1730.76 286.979 1730.46 285.928 1730.46 284.659V262.955ZM1752.12 268.182V271.023H1740.82V268.182H1752.12ZM1744.11 262.955H1747.47V283.75C1747.47 284.697 1747.6 285.407 1747.88 285.881C1748.16 286.345 1748.52 286.657 1748.96 286.818C1749.4 286.97 1749.87 287.045 1750.36 287.045C1750.73 287.045 1751.04 287.027 1751.27 286.989C1751.51 286.941 1751.7 286.903 1751.84 286.875L1752.52 289.886C1752.29 289.972 1751.98 290.057 1751.57 290.142C1751.16 290.237 1750.65 290.284 1750.02 290.284C1749.08 290.284 1748.15 290.08 1747.24 289.673C1746.34 289.266 1745.59 288.646 1744.99 287.812C1744.41 286.979 1744.11 285.928 1744.11 284.659V262.955ZM1762.71 290.511C1761.32 290.511 1760.07 290.251 1758.94 289.73C1757.82 289.2 1756.92 288.438 1756.26 287.443C1755.6 286.439 1755.26 285.227 1755.26 283.807C1755.26 282.557 1755.51 281.544 1756 280.767C1756.5 279.981 1757.15 279.366 1757.98 278.92C1758.8 278.475 1759.71 278.144 1760.7 277.926C1761.71 277.699 1762.72 277.519 1763.73 277.386C1765.06 277.216 1766.13 277.088 1766.95 277.003C1767.79 276.908 1768.39 276.752 1768.77 276.534C1769.16 276.316 1769.36 275.937 1769.36 275.398V275.284C1769.36 273.883 1768.97 272.794 1768.2 272.017C1767.45 271.241 1766.3 270.852 1764.75 270.852C1763.15 270.852 1761.9 271.203 1760.99 271.903C1760.08 272.604 1759.44 273.352 1759.07 274.148L1755.89 273.011C1756.46 271.686 1757.22 270.653 1758.16 269.915C1759.12 269.167 1760.16 268.646 1761.29 268.352C1762.42 268.049 1763.54 267.898 1764.64 267.898C1765.34 267.898 1766.15 267.983 1767.05 268.153C1767.97 268.314 1768.86 268.651 1769.71 269.162C1770.57 269.673 1771.29 270.445 1771.86 271.477C1772.42 272.509 1772.71 273.892 1772.71 275.625V290H1769.36V287.045H1769.18C1768.96 287.519 1768.58 288.026 1768.05 288.565C1767.52 289.105 1766.81 289.564 1765.93 289.943C1765.05 290.322 1763.98 290.511 1762.71 290.511ZM1763.22 287.5C1764.54 287.5 1765.66 287.24 1766.57 286.719C1767.49 286.198 1768.18 285.526 1768.65 284.702C1769.12 283.878 1769.36 283.011 1769.36 282.102V279.034C1769.21 279.205 1768.9 279.361 1768.42 279.503C1767.94 279.635 1767.4 279.754 1766.77 279.858C1766.15 279.953 1765.55 280.038 1764.97 280.114C1764.39 280.18 1763.92 280.237 1763.56 280.284C1762.69 280.398 1761.87 280.582 1761.12 280.838C1760.37 281.084 1759.76 281.458 1759.3 281.96C1758.84 282.453 1758.62 283.125 1758.62 283.977C1758.62 285.142 1759.05 286.023 1759.91 286.619C1760.78 287.206 1761.88 287.5 1763.22 287.5ZM1781.3 276.875V290H1777.95V268.182H1781.18V271.591H1781.47C1781.98 270.483 1782.76 269.593 1783.8 268.92C1784.84 268.239 1786.18 267.898 1787.83 267.898C1789.31 267.898 1790.6 268.201 1791.71 268.807C1792.82 269.403 1793.68 270.312 1794.3 271.534C1794.91 272.746 1795.22 274.28 1795.22 276.136V290H1791.87V276.364C1791.87 274.65 1791.42 273.314 1790.53 272.358C1789.64 271.392 1788.42 270.909 1786.87 270.909C1785.8 270.909 1784.84 271.141 1784 271.605C1783.16 272.069 1782.51 272.746 1782.02 273.636C1781.54 274.527 1781.3 275.606 1781.3 276.875ZM1800.92 290V260.909H1804.27V271.648H1804.56C1804.8 271.269 1805.14 270.786 1805.58 270.199C1806.02 269.602 1806.66 269.072 1807.48 268.608C1808.31 268.134 1809.44 267.898 1810.86 267.898C1812.7 267.898 1814.32 268.357 1815.72 269.276C1817.12 270.194 1818.22 271.496 1819 273.182C1819.79 274.867 1820.18 276.856 1820.18 279.148C1820.18 281.458 1819.79 283.461 1819 285.156C1818.22 286.842 1817.13 288.149 1815.73 289.077C1814.34 289.995 1812.74 290.455 1810.92 290.455C1809.52 290.455 1808.4 290.223 1807.55 289.759C1806.71 289.285 1806.06 288.75 1805.61 288.153C1805.15 287.547 1804.8 287.045 1804.56 286.648H1804.16V290H1800.92ZM1804.21 279.091C1804.21 280.739 1804.46 282.192 1804.94 283.452C1805.42 284.702 1806.13 285.682 1807.06 286.392C1807.98 287.093 1809.12 287.443 1810.46 287.443C1811.87 287.443 1813.04 287.074 1813.97 286.335C1814.92 285.587 1815.63 284.583 1816.1 283.324C1816.59 282.055 1816.83 280.644 1816.83 279.091C1816.83 277.557 1816.59 276.174 1816.12 274.943C1815.65 273.703 1814.95 272.723 1814 272.003C1813.06 271.274 1811.89 270.909 1810.46 270.909C1809.1 270.909 1807.96 271.255 1807.03 271.946C1806.1 272.628 1805.4 273.584 1804.92 274.815C1804.45 276.037 1804.21 277.462 1804.21 279.091ZM1824.43 290V268.182H1827.78V290H1824.43ZM1826.13 264.545C1825.48 264.545 1824.92 264.323 1824.44 263.878C1823.98 263.433 1823.75 262.898 1823.75 262.273C1823.75 261.648 1823.98 261.113 1824.44 260.668C1824.92 260.223 1825.48 260 1826.13 260C1826.79 260 1827.35 260.223 1827.81 260.668C1828.28 261.113 1828.52 261.648 1828.52 262.273C1828.52 262.898 1828.28 263.433 1827.81 263.878C1827.35 264.323 1826.79 264.545 1826.13 264.545ZM1842.19 290.455C1840.09 290.455 1838.27 289.991 1836.75 289.062C1835.23 288.125 1834.06 286.818 1833.24 285.142C1832.43 283.456 1832.02 281.496 1832.02 279.261C1832.02 277.027 1832.43 275.057 1833.24 273.352C1834.06 271.638 1835.21 270.303 1836.68 269.347C1838.15 268.381 1839.88 267.898 1841.85 267.898C1842.98 267.898 1844.11 268.087 1845.21 268.466C1846.32 268.845 1847.33 269.46 1848.24 270.312C1849.15 271.155 1849.87 272.273 1850.41 273.665C1850.95 275.057 1851.22 276.771 1851.22 278.807V280.227H1834.4V277.33H1847.81C1847.81 276.098 1847.57 275 1847.07 274.034C1846.59 273.068 1845.9 272.306 1845 271.747C1844.11 271.188 1843.06 270.909 1841.85 270.909C1840.51 270.909 1839.36 271.241 1838.38 271.903C1837.42 272.557 1836.67 273.409 1836.15 274.46C1835.63 275.511 1835.37 276.638 1835.37 277.841V279.773C1835.37 281.42 1835.65 282.817 1836.22 283.963C1836.8 285.099 1837.6 285.966 1838.62 286.562C1839.65 287.15 1840.83 287.443 1842.19 287.443C1843.07 287.443 1843.86 287.32 1844.57 287.074C1845.29 286.818 1845.91 286.439 1846.44 285.938C1846.96 285.426 1847.36 284.792 1847.64 284.034L1850.88 284.943C1850.54 286.042 1849.97 287.008 1849.16 287.841C1848.36 288.665 1847.36 289.309 1846.18 289.773C1845 290.227 1843.67 290.455 1842.19 290.455ZM1864.93 268.182V271.023H1853.62V268.182H1864.93ZM1856.92 262.955H1860.27V283.75C1860.27 284.697 1860.41 285.407 1860.68 285.881C1860.97 286.345 1861.33 286.657 1861.76 286.818C1862.21 286.97 1862.68 287.045 1863.17 287.045C1863.54 287.045 1863.84 287.027 1864.08 286.989C1864.31 286.941 1864.5 286.903 1864.65 286.875L1865.33 289.886C1865.1 289.972 1864.78 290.057 1864.38 290.142C1863.97 290.237 1863.45 290.284 1862.83 290.284C1861.88 290.284 1860.95 290.08 1860.04 289.673C1859.14 289.266 1858.4 288.646 1857.8 287.812C1857.21 286.979 1856.92 285.928 1856.92 284.659V262.955ZM1878.01 290.455C1875.9 290.455 1874.09 289.991 1872.57 289.062C1871.05 288.125 1869.88 286.818 1869.06 285.142C1868.24 283.456 1867.84 281.496 1867.84 279.261C1867.84 277.027 1868.24 275.057 1869.06 273.352C1869.88 271.638 1871.03 270.303 1872.5 269.347C1873.97 268.381 1875.7 267.898 1877.67 267.898C1878.8 267.898 1879.92 268.087 1881.03 268.466C1882.14 268.845 1883.15 269.46 1884.06 270.312C1884.97 271.155 1885.69 272.273 1886.23 273.665C1886.77 275.057 1887.04 276.771 1887.04 278.807V280.227H1870.22V277.33H1883.63C1883.63 276.098 1883.39 275 1882.89 274.034C1882.41 273.068 1881.72 272.306 1880.82 271.747C1879.93 271.188 1878.88 270.909 1877.67 270.909C1876.33 270.909 1875.17 271.241 1874.2 271.903C1873.23 272.557 1872.49 273.409 1871.97 274.46C1871.45 275.511 1871.19 276.638 1871.19 277.841V279.773C1871.19 281.42 1871.47 282.817 1872.04 283.963C1872.62 285.099 1873.42 285.966 1874.44 286.562C1875.46 287.15 1876.65 287.443 1878.01 287.443C1878.89 287.443 1879.68 287.32 1880.39 287.074C1881.11 286.818 1881.73 286.439 1882.25 285.938C1882.77 285.426 1883.18 284.792 1883.46 284.034L1886.7 284.943C1886.36 286.042 1885.79 287.008 1884.98 287.841C1884.18 288.665 1883.18 289.309 1882 289.773C1880.81 290.227 1879.48 290.455 1878.01 290.455ZM1891.26 290V268.182H1894.5V271.477H1894.73C1895.12 270.398 1895.84 269.522 1896.88 268.849C1897.93 268.177 1899.1 267.841 1900.41 267.841C1900.65 267.841 1900.96 267.846 1901.33 267.855C1901.7 267.865 1901.98 267.879 1902.17 267.898V271.307C1902.06 271.278 1901.79 271.236 1901.39 271.179C1900.99 271.113 1900.57 271.08 1900.12 271.08C1899.06 271.08 1898.12 271.302 1897.28 271.747C1896.46 272.183 1895.81 272.789 1895.32 273.565C1894.85 274.332 1894.61 275.208 1894.61 276.193V290H1891.26ZM1916.16 275.966V279.091H1903.43V275.966H1916.16ZM1937.54 268.182C1937.37 266.742 1936.68 265.625 1935.47 264.83C1934.26 264.034 1932.77 263.636 1931.01 263.636C1929.72 263.636 1928.59 263.845 1927.63 264.261C1926.67 264.678 1925.92 265.251 1925.38 265.98C1924.85 266.709 1924.59 267.538 1924.59 268.466C1924.59 269.242 1924.77 269.91 1925.14 270.469C1925.52 271.018 1926 271.477 1926.59 271.847C1927.18 272.206 1927.79 272.505 1928.44 272.741C1929.08 272.969 1929.67 273.153 1930.21 273.295L1933.17 274.091C1933.93 274.29 1934.77 274.564 1935.7 274.915C1936.63 275.265 1937.53 275.743 1938.38 276.349C1939.24 276.946 1939.95 277.713 1940.51 278.651C1941.07 279.588 1941.35 280.739 1941.35 282.102C1941.35 283.674 1940.94 285.095 1940.11 286.364C1939.3 287.633 1938.11 288.641 1936.53 289.389C1934.97 290.137 1933.07 290.511 1930.84 290.511C1928.76 290.511 1926.95 290.175 1925.43 289.503C1923.91 288.83 1922.72 287.893 1921.85 286.69C1920.99 285.488 1920.5 284.091 1920.38 282.5H1924.02C1924.12 283.598 1924.48 284.508 1925.13 285.227C1925.78 285.937 1926.61 286.468 1927.6 286.818C1928.6 287.159 1929.68 287.33 1930.84 287.33C1932.18 287.33 1933.39 287.112 1934.46 286.676C1935.53 286.231 1936.38 285.616 1937 284.83C1937.63 284.034 1937.94 283.106 1937.94 282.045C1937.94 281.08 1937.67 280.294 1937.13 279.688C1936.59 279.081 1935.88 278.589 1935 278.21C1934.12 277.831 1933.17 277.5 1932.15 277.216L1928.57 276.193C1926.29 275.54 1924.49 274.607 1923.17 273.395C1921.84 272.183 1921.18 270.597 1921.18 268.636C1921.18 267.008 1921.62 265.587 1922.5 264.375C1923.39 263.153 1924.58 262.206 1926.08 261.534C1927.59 260.852 1929.27 260.511 1931.12 260.511C1933 260.511 1934.66 260.848 1936.12 261.52C1937.58 262.183 1938.74 263.092 1939.59 264.247C1940.45 265.402 1940.9 266.714 1940.95 268.182H1937.54ZM1954.96 290.455C1952.85 290.455 1951.04 289.991 1949.51 289.062C1948 288.125 1946.83 286.818 1946.01 285.142C1945.19 283.456 1944.78 281.496 1944.78 279.261C1944.78 277.027 1945.19 275.057 1946.01 273.352C1946.83 271.638 1947.98 270.303 1949.44 269.347C1950.92 268.381 1952.64 267.898 1954.61 267.898C1955.75 267.898 1956.87 268.087 1957.98 268.466C1959.09 268.845 1960.1 269.46 1961.01 270.312C1961.92 271.155 1962.64 272.273 1963.18 273.665C1963.72 275.057 1963.99 276.771 1963.99 278.807V280.227H1947.17V277.33H1960.58C1960.58 276.098 1960.33 275 1959.84 274.034C1959.36 273.068 1958.67 272.306 1957.77 271.747C1956.88 271.188 1955.83 270.909 1954.61 270.909C1953.28 270.909 1952.12 271.241 1951.15 271.903C1950.18 272.557 1949.44 273.409 1948.92 274.46C1948.4 275.511 1948.14 276.638 1948.14 277.841V279.773C1948.14 281.42 1948.42 282.817 1948.99 283.963C1949.57 285.099 1950.37 285.966 1951.39 286.562C1952.41 287.15 1953.6 287.443 1954.96 287.443C1955.84 287.443 1956.63 287.32 1957.34 287.074C1958.06 286.818 1958.68 286.439 1959.2 285.938C1959.72 285.426 1960.13 284.792 1960.41 284.034L1963.65 284.943C1963.31 286.042 1962.73 287.008 1961.93 287.841C1961.12 288.665 1960.13 289.309 1958.95 289.773C1957.76 290.227 1956.43 290.455 1954.96 290.455ZM1968.21 290V268.182H1971.45V271.477H1971.67C1972.07 270.398 1972.79 269.522 1973.83 268.849C1974.88 268.177 1976.05 267.841 1977.36 267.841C1977.6 267.841 1977.91 267.846 1978.28 267.855C1978.65 267.865 1978.93 267.879 1979.12 267.898V271.307C1979 271.278 1978.74 271.236 1978.34 271.179C1977.94 271.113 1977.52 271.08 1977.07 271.08C1976.01 271.08 1975.06 271.302 1974.23 271.747C1973.41 272.183 1972.75 272.789 1972.27 273.565C1971.8 274.332 1971.56 275.208 1971.56 276.193V290H1968.21ZM2000.72 268.182L1992.65 290H1989.24L1981.17 268.182H1984.81L1990.83 285.568H1991.06L1997.08 268.182H2000.72ZM2004.26 290V268.182H2007.61V290H2004.26ZM2005.97 264.545C2005.31 264.545 2004.75 264.323 2004.28 263.878C2003.81 263.433 2003.58 262.898 2003.58 262.273C2003.58 261.648 2003.81 261.113 2004.28 260.668C2004.75 260.223 2005.31 260 2005.97 260C2006.62 260 2007.18 260.223 2007.64 260.668C2008.12 261.113 2008.35 261.648 2008.35 262.273C2008.35 262.898 2008.12 263.433 2007.64 263.878C2007.18 264.323 2006.62 264.545 2005.97 264.545ZM2021.74 290.455C2019.69 290.455 2017.93 289.972 2016.45 289.006C2014.98 288.04 2013.84 286.709 2013.04 285.014C2012.25 283.319 2011.85 281.383 2011.85 279.205C2011.85 276.989 2012.26 275.033 2013.07 273.338C2013.9 271.634 2015.04 270.303 2016.51 269.347C2017.99 268.381 2019.71 267.898 2021.68 267.898C2023.21 267.898 2024.6 268.182 2025.83 268.75C2027.06 269.318 2028.07 270.114 2028.85 271.136C2029.64 272.159 2030.13 273.352 2030.32 274.716H2026.96C2026.71 273.722 2026.14 272.841 2025.26 272.074C2024.39 271.297 2023.21 270.909 2021.74 270.909C2020.43 270.909 2019.28 271.25 2018.3 271.932C2017.32 272.604 2016.56 273.556 2016.01 274.787C2015.47 276.009 2015.2 277.443 2015.2 279.091C2015.2 280.777 2015.47 282.244 2016 283.494C2016.54 284.744 2017.3 285.715 2018.27 286.406C2019.26 287.098 2020.41 287.443 2021.74 287.443C2022.61 287.443 2023.4 287.292 2024.11 286.989C2024.82 286.686 2025.42 286.25 2025.91 285.682C2026.41 285.114 2026.76 284.432 2026.96 283.636H2030.32C2030.13 284.924 2029.66 286.084 2028.91 287.116C2028.17 288.139 2027.19 288.954 2025.97 289.56C2024.76 290.156 2023.35 290.455 2021.74 290.455ZM2043.48 290.455C2041.38 290.455 2039.57 289.991 2038.04 289.062C2036.53 288.125 2035.36 286.818 2034.54 285.142C2033.72 283.456 2033.31 281.496 2033.31 279.261C2033.31 277.027 2033.72 275.057 2034.54 273.352C2035.36 271.638 2036.51 270.303 2037.97 269.347C2039.45 268.381 2041.17 267.898 2043.14 267.898C2044.28 267.898 2045.4 268.087 2046.51 268.466C2047.62 268.845 2048.63 269.46 2049.54 270.312C2050.45 271.155 2051.17 272.273 2051.71 273.665C2052.25 275.057 2052.52 276.771 2052.52 278.807V280.227H2035.7V277.33H2049.11C2049.11 276.098 2048.86 275 2048.37 274.034C2047.89 273.068 2047.2 272.306 2046.3 271.747C2045.41 271.188 2044.36 270.909 2043.14 270.909C2041.81 270.909 2040.65 271.241 2039.68 271.903C2038.71 272.557 2037.97 273.409 2037.45 274.46C2036.93 275.511 2036.67 276.638 2036.67 277.841V279.773C2036.67 281.42 2036.95 282.817 2037.52 283.963C2038.1 285.099 2038.9 285.966 2039.92 286.562C2040.94 287.15 2042.13 287.443 2043.48 287.443C2044.37 287.443 2045.16 287.32 2045.87 287.074C2046.59 286.818 2047.21 286.439 2047.73 285.938C2048.25 285.426 2048.66 284.792 2048.94 284.034L2052.18 284.943C2051.84 286.042 2051.26 287.008 2050.46 287.841C2049.65 288.665 2048.66 289.309 2047.48 289.773C2046.29 290.227 2044.96 290.455 2043.48 290.455ZM2072.19 273.068L2069.18 273.92C2068.99 273.419 2068.71 272.931 2068.34 272.457C2067.98 271.974 2067.49 271.577 2066.87 271.264C2066.24 270.952 2065.44 270.795 2064.47 270.795C2063.13 270.795 2062.02 271.103 2061.13 271.719C2060.25 272.325 2059.81 273.097 2059.81 274.034C2059.81 274.867 2060.11 275.526 2060.72 276.009C2061.32 276.491 2062.27 276.894 2063.56 277.216L2066.8 278.011C2068.75 278.485 2070.2 279.209 2071.16 280.185C2072.11 281.151 2072.59 282.396 2072.59 283.92C2072.59 285.17 2072.23 286.288 2071.51 287.273C2070.8 288.258 2069.81 289.034 2068.53 289.602C2067.25 290.17 2065.76 290.455 2064.07 290.455C2061.84 290.455 2060 289.972 2058.54 289.006C2057.08 288.04 2056.16 286.629 2055.77 284.773L2058.95 283.977C2059.26 285.152 2059.83 286.032 2060.67 286.619C2061.53 287.206 2062.64 287.5 2064.01 287.5C2065.57 287.5 2066.81 287.169 2067.73 286.506C2068.66 285.833 2069.12 285.028 2069.12 284.091C2069.12 283.333 2068.86 282.699 2068.33 282.188C2067.8 281.667 2066.98 281.278 2065.89 281.023L2062.25 280.17C2060.25 279.697 2058.78 278.963 2057.85 277.969C2056.92 276.965 2056.45 275.71 2056.45 274.205C2056.45 272.973 2056.8 271.884 2057.49 270.938C2058.19 269.991 2059.14 269.247 2060.35 268.707C2061.56 268.168 2062.93 267.898 2064.47 267.898C2066.62 267.898 2068.32 268.371 2069.55 269.318C2070.79 270.265 2071.67 271.515 2072.19 273.068Z" fill="white"/>
<path d="M1658.52 445.909H1662.73L1672.61 470.057H1672.95L1682.84 445.909H1687.05V475H1683.75V452.898H1683.47L1674.38 475H1671.19L1662.1 452.898H1661.82V475H1658.52V445.909ZM1701.64 475.455C1699.67 475.455 1697.94 474.986 1696.45 474.048C1694.98 473.111 1693.82 471.799 1692.99 470.114C1692.16 468.428 1691.75 466.458 1691.75 464.205C1691.75 461.932 1692.16 459.948 1692.99 458.253C1693.82 456.558 1694.98 455.241 1696.45 454.304C1697.94 453.366 1699.67 452.898 1701.64 452.898C1703.61 452.898 1705.33 453.366 1706.81 454.304C1708.29 455.241 1709.45 456.558 1710.27 458.253C1711.11 459.948 1711.52 461.932 1711.52 464.205C1711.52 466.458 1711.11 468.428 1710.27 470.114C1709.45 471.799 1708.29 473.111 1706.81 474.048C1705.33 474.986 1703.61 475.455 1701.64 475.455ZM1701.64 472.443C1703.13 472.443 1704.37 472.06 1705.33 471.293C1706.3 470.526 1707.01 469.517 1707.48 468.267C1707.94 467.017 1708.17 465.663 1708.17 464.205C1708.17 462.746 1707.94 461.387 1707.48 460.128C1707.01 458.868 1706.3 457.85 1705.33 457.074C1704.37 456.297 1703.13 455.909 1701.64 455.909C1700.14 455.909 1698.91 456.297 1697.94 457.074C1696.98 457.85 1696.26 458.868 1695.8 460.128C1695.34 461.387 1695.1 462.746 1695.1 464.205C1695.1 465.663 1695.34 467.017 1695.8 468.267C1696.26 469.517 1696.98 470.526 1697.94 471.293C1698.91 472.06 1700.14 472.443 1701.64 472.443ZM1719.11 461.875V475H1715.76V453.182H1719V456.591H1719.28C1719.8 455.483 1720.57 454.593 1721.61 453.92C1722.66 453.239 1724 452.898 1725.65 452.898C1727.12 452.898 1728.42 453.201 1729.53 453.807C1730.63 454.403 1731.5 455.312 1732.11 456.534C1732.73 457.746 1733.03 459.28 1733.03 461.136V475H1729.68V461.364C1729.68 459.65 1729.24 458.314 1728.35 457.358C1727.46 456.392 1726.23 455.909 1724.68 455.909C1723.61 455.909 1722.66 456.141 1721.81 456.605C1720.98 457.069 1720.32 457.746 1719.84 458.636C1719.36 459.527 1719.11 460.606 1719.11 461.875ZM1747.09 483.636C1745.47 483.636 1744.08 483.428 1742.91 483.011C1741.75 482.604 1740.78 482.064 1740 481.392C1739.23 480.729 1738.62 480.019 1738.17 479.261L1740.84 477.386C1741.14 477.784 1741.52 478.239 1741.99 478.75C1742.45 479.271 1743.09 479.721 1743.89 480.099C1744.7 480.488 1745.77 480.682 1747.09 480.682C1748.85 480.682 1750.3 480.256 1751.45 479.403C1752.59 478.551 1753.17 477.216 1753.17 475.398V470.966H1752.88C1752.64 471.364 1752.29 471.856 1751.83 472.443C1751.39 473.021 1750.74 473.537 1749.9 473.991C1749.07 474.437 1747.94 474.659 1746.52 474.659C1744.76 474.659 1743.18 474.242 1741.77 473.409C1740.38 472.576 1739.28 471.364 1738.46 469.773C1737.66 468.182 1737.26 466.25 1737.26 463.977C1737.26 461.742 1737.65 459.796 1738.44 458.139C1739.22 456.473 1740.32 455.185 1741.72 454.276C1743.12 453.357 1744.74 452.898 1746.58 452.898C1748 452.898 1749.12 453.134 1749.96 453.608C1750.8 454.072 1751.44 454.602 1751.89 455.199C1752.34 455.786 1752.69 456.269 1752.94 456.648H1753.28V453.182H1756.52V475.625C1756.52 477.5 1756.09 479.025 1755.24 480.199C1754.4 481.383 1753.26 482.249 1751.83 482.798C1750.41 483.357 1748.83 483.636 1747.09 483.636ZM1746.97 471.648C1748.32 471.648 1749.45 471.34 1750.38 470.724C1751.31 470.109 1752.02 469.223 1752.5 468.068C1752.98 466.913 1753.22 465.53 1753.22 463.92C1753.22 462.348 1752.99 460.961 1752.51 459.759C1752.04 458.556 1751.34 457.614 1750.41 456.932C1749.48 456.25 1748.34 455.909 1746.97 455.909C1745.55 455.909 1744.37 456.269 1743.42 456.989C1742.48 457.708 1741.78 458.674 1741.31 459.886C1740.84 461.098 1740.61 462.443 1740.61 463.92C1740.61 465.436 1740.85 466.776 1741.32 467.94C1741.8 469.096 1742.51 470.005 1743.45 470.668C1744.4 471.321 1745.57 471.648 1746.97 471.648ZM1770.64 475.455C1768.67 475.455 1766.94 474.986 1765.45 474.048C1763.98 473.111 1762.82 471.799 1761.99 470.114C1761.16 468.428 1760.75 466.458 1760.75 464.205C1760.75 461.932 1761.16 459.948 1761.99 458.253C1762.82 456.558 1763.98 455.241 1765.45 454.304C1766.94 453.366 1768.67 452.898 1770.64 452.898C1772.61 452.898 1774.33 453.366 1775.81 454.304C1777.3 455.241 1778.45 456.558 1779.27 458.253C1780.11 459.948 1780.52 461.932 1780.52 464.205C1780.52 466.458 1780.11 468.428 1779.27 470.114C1778.45 471.799 1777.3 473.111 1775.81 474.048C1774.33 474.986 1772.61 475.455 1770.64 475.455ZM1770.64 472.443C1772.13 472.443 1773.37 472.06 1774.33 471.293C1775.3 470.526 1776.01 469.517 1776.48 468.267C1776.94 467.017 1777.17 465.663 1777.17 464.205C1777.17 462.746 1776.94 461.387 1776.48 460.128C1776.01 458.868 1775.3 457.85 1774.33 457.074C1773.37 456.297 1772.13 455.909 1770.64 455.909C1769.14 455.909 1767.91 456.297 1766.95 457.074C1765.98 457.85 1765.26 458.868 1764.8 460.128C1764.34 461.387 1764.1 462.746 1764.1 464.205C1764.1 465.663 1764.34 467.017 1764.8 468.267C1765.26 469.517 1765.98 470.526 1766.95 471.293C1767.91 472.06 1769.14 472.443 1770.64 472.443ZM1794.19 475H1785.22V445.909H1794.59C1797.41 445.909 1799.83 446.491 1801.84 447.656C1803.84 448.812 1805.38 450.473 1806.45 452.642C1807.52 454.801 1808.06 457.386 1808.06 460.398C1808.06 463.428 1807.52 466.037 1806.44 468.224C1805.36 470.402 1803.79 472.079 1801.72 473.253C1799.66 474.418 1797.15 475 1794.19 475ZM1788.74 471.875H1793.97C1796.37 471.875 1798.37 471.411 1799.95 470.483C1801.53 469.555 1802.71 468.234 1803.48 466.52C1804.26 464.806 1804.65 462.765 1804.65 460.398C1804.65 458.049 1804.26 456.027 1803.5 454.332C1802.73 452.628 1801.58 451.321 1800.06 450.412C1798.54 449.493 1796.64 449.034 1794.36 449.034H1788.74V471.875ZM1813.09 475V445.909H1823.26C1825.28 445.909 1826.95 446.259 1828.27 446.96C1829.59 447.652 1830.57 448.584 1831.21 449.759C1831.86 450.923 1832.18 452.216 1832.18 453.636C1832.18 454.886 1831.95 455.919 1831.51 456.733C1831.07 457.547 1830.5 458.191 1829.78 458.665C1829.07 459.138 1828.29 459.489 1827.46 459.716V460C1828.35 460.057 1829.25 460.369 1830.15 460.938C1831.05 461.506 1831.8 462.32 1832.4 463.381C1833.01 464.441 1833.31 465.739 1833.31 467.273C1833.31 468.731 1832.98 470.043 1832.32 471.207C1831.66 472.372 1830.61 473.295 1829.18 473.977C1827.75 474.659 1825.89 475 1823.6 475H1813.09ZM1816.61 471.875H1823.6C1825.9 471.875 1827.53 471.43 1828.5 470.54C1829.47 469.64 1829.96 468.551 1829.96 467.273C1829.96 466.288 1829.71 465.379 1829.21 464.545C1828.71 463.703 1827.99 463.03 1827.06 462.528C1826.14 462.017 1825.04 461.761 1823.77 461.761H1816.61V471.875ZM1816.61 458.693H1823.14C1824.2 458.693 1825.16 458.485 1826.01 458.068C1826.87 457.652 1827.56 457.064 1828.06 456.307C1828.57 455.549 1828.83 454.659 1828.83 453.636C1828.83 452.358 1828.38 451.274 1827.49 450.384C1826.6 449.484 1825.19 449.034 1823.26 449.034H1816.61V458.693ZM1658.52 535V505.909H1662.05V518.864H1677.56V505.909H1681.08V535H1677.56V521.989H1662.05V535H1658.52ZM1700.55 526.08V513.182H1703.9V535H1700.55V531.307H1700.32C1699.81 532.415 1699.01 533.357 1697.93 534.134C1696.85 534.901 1695.49 535.284 1693.84 535.284C1692.48 535.284 1691.27 534.986 1690.21 534.389C1689.15 533.783 1688.31 532.874 1687.71 531.662C1687.1 530.44 1686.8 528.902 1686.8 527.045V513.182H1690.15V526.818C1690.15 528.409 1690.59 529.678 1691.49 530.625C1692.38 531.572 1693.53 532.045 1694.92 532.045C1695.76 532.045 1696.6 531.832 1697.47 531.406C1698.34 530.98 1699.07 530.327 1699.65 529.446C1700.25 528.565 1700.55 527.443 1700.55 526.08ZM1717.97 543.636C1716.35 543.636 1714.96 543.428 1713.79 543.011C1712.63 542.604 1711.66 542.064 1710.88 541.392C1710.11 540.729 1709.5 540.019 1709.05 539.261L1711.72 537.386C1712.02 537.784 1712.4 538.239 1712.87 538.75C1713.33 539.271 1713.97 539.721 1714.77 540.099C1715.58 540.488 1716.65 540.682 1717.97 540.682C1719.73 540.682 1721.18 540.256 1722.33 539.403C1723.47 538.551 1724.05 537.216 1724.05 535.398V530.966H1723.76C1723.52 531.364 1723.17 531.856 1722.71 532.443C1722.27 533.021 1721.62 533.537 1720.78 533.991C1719.95 534.437 1718.82 534.659 1717.4 534.659C1715.64 534.659 1714.06 534.242 1712.65 533.409C1711.26 532.576 1710.16 531.364 1709.34 529.773C1708.54 528.182 1708.14 526.25 1708.14 523.977C1708.14 521.742 1708.53 519.796 1709.32 518.139C1710.1 516.473 1711.2 515.185 1712.6 514.276C1714 513.357 1715.62 512.898 1717.46 512.898C1718.88 512.898 1720 513.134 1720.84 513.608C1721.68 514.072 1722.32 514.602 1722.77 515.199C1723.22 515.786 1723.57 516.269 1723.82 516.648H1724.16V513.182H1727.4V535.625C1727.4 537.5 1726.97 539.025 1726.12 540.199C1725.28 541.383 1724.14 542.249 1722.71 542.798C1721.29 543.357 1719.71 543.636 1717.97 543.636ZM1717.85 531.648C1719.2 531.648 1720.33 531.34 1721.26 530.724C1722.19 530.109 1722.9 529.223 1723.38 528.068C1723.86 526.913 1724.1 525.53 1724.1 523.92C1724.1 522.348 1723.87 520.961 1723.39 519.759C1722.92 518.556 1722.22 517.614 1721.29 516.932C1720.36 516.25 1719.22 515.909 1717.85 515.909C1716.43 515.909 1715.25 516.269 1714.3 516.989C1713.36 517.708 1712.66 518.674 1712.19 519.886C1711.72 521.098 1711.49 522.443 1711.49 523.92C1711.49 525.436 1711.73 526.776 1712.2 527.94C1712.68 529.096 1713.39 530.005 1714.33 530.668C1715.28 531.321 1716.45 531.648 1717.85 531.648ZM1741.46 543.636C1739.84 543.636 1738.45 543.428 1737.29 543.011C1736.12 542.604 1735.15 542.064 1734.37 541.392C1733.61 540.729 1733 540.019 1732.54 539.261L1735.21 537.386C1735.51 537.784 1735.9 538.239 1736.36 538.75C1736.83 539.271 1737.46 539.721 1738.27 540.099C1739.08 540.488 1740.15 540.682 1741.46 540.682C1743.22 540.682 1744.68 540.256 1745.82 539.403C1746.97 538.551 1747.54 537.216 1747.54 535.398V530.966H1747.26C1747.01 531.364 1746.66 531.856 1746.21 532.443C1745.76 533.021 1745.12 533.537 1744.27 533.991C1743.44 534.437 1742.31 534.659 1740.89 534.659C1739.13 534.659 1737.55 534.242 1736.15 533.409C1734.76 532.576 1733.65 531.364 1732.84 529.773C1732.03 528.182 1731.63 526.25 1731.63 523.977C1731.63 521.742 1732.03 519.796 1732.81 518.139C1733.6 516.473 1734.69 515.185 1736.09 514.276C1737.49 513.357 1739.11 512.898 1740.95 512.898C1742.37 512.898 1743.5 513.134 1744.33 513.608C1745.17 514.072 1745.82 514.602 1746.26 515.199C1746.72 515.786 1747.07 516.269 1747.31 516.648H1747.65V513.182H1750.89V535.625C1750.89 537.5 1750.47 539.025 1749.61 540.199C1748.77 541.383 1747.64 542.249 1746.21 542.798C1744.79 543.357 1743.2 543.636 1741.46 543.636ZM1741.35 531.648C1742.69 531.648 1743.83 531.34 1744.76 530.724C1745.69 530.109 1746.39 529.223 1746.87 528.068C1747.36 526.913 1747.6 525.53 1747.6 523.92C1747.6 522.348 1747.36 520.961 1746.89 519.759C1746.41 518.556 1745.71 517.614 1744.79 516.932C1743.86 516.25 1742.71 515.909 1741.35 515.909C1739.93 515.909 1738.74 516.269 1737.8 516.989C1736.86 517.708 1736.15 518.674 1735.68 519.886C1735.22 521.098 1734.98 522.443 1734.98 523.92C1734.98 525.436 1735.22 526.776 1735.69 527.94C1736.18 529.096 1736.89 530.005 1737.83 530.668C1738.77 531.321 1739.95 531.648 1741.35 531.648ZM1756.15 535V513.182H1759.5V535H1756.15ZM1757.85 509.545C1757.2 509.545 1756.64 509.323 1756.16 508.878C1755.7 508.433 1755.47 507.898 1755.47 507.273C1755.47 506.648 1755.7 506.113 1756.16 505.668C1756.64 505.223 1757.2 505 1757.85 505C1758.51 505 1759.07 505.223 1759.53 505.668C1760 506.113 1760.24 506.648 1760.24 507.273C1760.24 507.898 1760 508.433 1759.53 508.878C1759.07 509.323 1758.51 509.545 1757.85 509.545ZM1768.11 521.875V535H1764.76V513.182H1768V516.591H1768.28C1768.8 515.483 1769.57 514.593 1770.61 513.92C1771.66 513.239 1773 512.898 1774.65 512.898C1776.13 512.898 1777.42 513.201 1778.53 513.807C1779.63 514.403 1780.5 515.312 1781.11 516.534C1781.73 517.746 1782.03 519.28 1782.03 521.136V535H1778.68V521.364C1778.68 519.65 1778.24 518.314 1777.35 517.358C1776.46 516.392 1775.24 515.909 1773.68 515.909C1772.61 515.909 1771.66 516.141 1770.81 516.605C1769.98 517.069 1769.32 517.746 1768.84 518.636C1768.36 519.527 1768.11 520.606 1768.11 521.875ZM1796.09 543.636C1794.47 543.636 1793.08 543.428 1791.91 543.011C1790.75 542.604 1789.78 542.064 1789 541.392C1788.23 540.729 1787.62 540.019 1787.17 539.261L1789.84 537.386C1790.14 537.784 1790.52 538.239 1790.99 538.75C1791.45 539.271 1792.09 539.721 1792.89 540.099C1793.71 540.488 1794.77 540.682 1796.09 540.682C1797.85 540.682 1799.3 540.256 1800.45 539.403C1801.59 538.551 1802.17 537.216 1802.17 535.398V530.966H1801.88C1801.64 531.364 1801.29 531.856 1800.83 532.443C1800.39 533.021 1799.74 533.537 1798.9 533.991C1798.07 534.437 1796.94 534.659 1795.52 534.659C1793.76 534.659 1792.18 534.242 1790.77 533.409C1789.38 532.576 1788.28 531.364 1787.47 529.773C1786.66 528.182 1786.26 526.25 1786.26 523.977C1786.26 521.742 1786.65 519.796 1787.44 518.139C1788.22 516.473 1789.32 515.185 1790.72 514.276C1792.12 513.357 1793.74 512.898 1795.58 512.898C1797 512.898 1798.12 513.134 1798.96 513.608C1799.8 514.072 1800.44 514.602 1800.89 515.199C1801.34 515.786 1801.69 516.269 1801.94 516.648H1802.28V513.182H1805.52V535.625C1805.52 537.5 1805.09 539.025 1804.24 540.199C1803.4 541.383 1802.26 542.249 1800.83 542.798C1799.41 543.357 1797.83 543.636 1796.09 543.636ZM1795.97 531.648C1797.32 531.648 1798.45 531.34 1799.38 530.724C1800.31 530.109 1801.02 529.223 1801.5 528.068C1801.98 526.913 1802.22 525.53 1802.22 523.92C1802.22 522.348 1801.99 520.961 1801.51 519.759C1801.04 518.556 1800.34 517.614 1799.41 516.932C1798.48 516.25 1797.34 515.909 1795.97 515.909C1794.55 515.909 1793.37 516.269 1792.42 516.989C1791.48 517.708 1790.78 518.674 1790.31 519.886C1789.84 521.098 1789.61 522.443 1789.61 523.92C1789.61 525.436 1789.85 526.776 1790.32 527.94C1790.8 529.096 1791.51 530.005 1792.45 530.668C1793.4 531.321 1794.57 531.648 1795.97 531.648ZM1821.6 535V505.909H1839.04V509.034H1825.12V518.864H1837.74V521.989H1825.12V535H1821.6ZM1850.16 535.511C1848.78 535.511 1847.53 535.251 1846.4 534.73C1845.27 534.2 1844.38 533.438 1843.71 532.443C1843.05 531.439 1842.72 530.227 1842.72 528.807C1842.72 527.557 1842.97 526.544 1843.46 525.767C1843.95 524.981 1844.61 524.366 1845.43 523.92C1846.26 523.475 1847.17 523.144 1848.16 522.926C1849.16 522.699 1850.17 522.519 1851.19 522.386C1852.51 522.216 1853.59 522.088 1854.41 522.003C1855.24 521.908 1855.85 521.752 1856.23 521.534C1856.62 521.316 1856.81 520.937 1856.81 520.398V520.284C1856.81 518.883 1856.43 517.794 1855.66 517.017C1854.9 516.241 1853.75 515.852 1852.21 515.852C1850.61 515.852 1849.35 516.203 1848.44 516.903C1847.53 517.604 1846.9 518.352 1846.53 519.148L1843.34 518.011C1843.91 516.686 1844.67 515.653 1845.62 514.915C1846.57 514.167 1847.62 513.646 1848.74 513.352C1849.88 513.049 1851 512.898 1852.09 512.898C1852.79 512.898 1853.6 512.983 1854.51 513.153C1855.43 513.314 1856.31 513.651 1857.17 514.162C1858.03 514.673 1858.74 515.445 1859.31 516.477C1859.88 517.509 1860.16 518.892 1860.16 520.625V535H1856.81V532.045H1856.64C1856.41 532.519 1856.03 533.026 1855.5 533.565C1854.97 534.105 1854.27 534.564 1853.39 534.943C1852.51 535.322 1851.43 535.511 1850.16 535.511ZM1850.67 532.5C1852 532.5 1853.12 532.24 1854.03 531.719C1854.94 531.198 1855.64 530.526 1856.1 529.702C1856.57 528.878 1856.81 528.011 1856.81 527.102V524.034C1856.67 524.205 1856.36 524.361 1855.87 524.503C1855.4 524.635 1854.85 524.754 1854.22 524.858C1853.61 524.953 1853.01 525.038 1852.42 525.114C1851.84 525.18 1851.37 525.237 1851.01 525.284C1850.14 525.398 1849.33 525.582 1848.57 525.838C1847.82 526.084 1847.22 526.458 1846.75 526.96C1846.3 527.453 1846.07 528.125 1846.07 528.977C1846.07 530.142 1846.5 531.023 1847.36 531.619C1848.24 532.206 1849.34 532.5 1850.67 532.5ZM1874.26 535.455C1872.22 535.455 1870.46 534.972 1868.98 534.006C1867.5 533.04 1866.37 531.709 1865.57 530.014C1864.78 528.319 1864.38 526.383 1864.38 524.205C1864.38 521.989 1864.79 520.033 1865.6 518.338C1866.42 516.634 1867.57 515.303 1869.04 514.347C1870.51 513.381 1872.24 512.898 1874.21 512.898C1875.74 512.898 1877.12 513.182 1878.36 513.75C1879.59 514.318 1880.6 515.114 1881.38 516.136C1882.17 517.159 1882.65 518.352 1882.84 519.716H1879.49C1879.24 518.722 1878.67 517.841 1877.79 517.074C1876.92 516.297 1875.74 515.909 1874.26 515.909C1872.96 515.909 1871.81 516.25 1870.83 516.932C1869.85 517.604 1869.09 518.556 1868.54 519.787C1868 521.009 1867.73 522.443 1867.73 524.091C1867.73 525.777 1868 527.244 1868.53 528.494C1869.07 529.744 1869.82 530.715 1870.8 531.406C1871.78 532.098 1872.94 532.443 1874.26 532.443C1875.14 532.443 1875.93 532.292 1876.64 531.989C1877.35 531.686 1877.95 531.25 1878.44 530.682C1878.93 530.114 1879.28 529.432 1879.49 528.636H1882.84C1882.65 529.924 1882.19 531.084 1881.44 532.116C1880.7 533.139 1879.72 533.954 1878.5 534.56C1877.29 535.156 1875.87 535.455 1874.26 535.455ZM1896.01 535.455C1893.91 535.455 1892.1 534.991 1890.57 534.062C1889.06 533.125 1887.89 531.818 1887.06 530.142C1886.25 528.456 1885.84 526.496 1885.84 524.261C1885.84 522.027 1886.25 520.057 1887.06 518.352C1887.89 516.638 1889.03 515.303 1890.5 514.347C1891.98 513.381 1893.7 512.898 1895.67 512.898C1896.81 512.898 1897.93 513.087 1899.04 513.466C1900.15 513.845 1901.15 514.46 1902.06 515.312C1902.97 516.155 1903.7 517.273 1904.24 518.665C1904.78 520.057 1905.05 521.771 1905.05 523.807V525.227H1888.23V522.33H1901.64C1901.64 521.098 1901.39 520 1900.9 519.034C1900.42 518.068 1899.72 517.306 1898.82 516.747C1897.93 516.188 1896.88 515.909 1895.67 515.909C1894.34 515.909 1893.18 516.241 1892.21 516.903C1891.24 517.557 1890.5 518.409 1889.98 519.46C1889.45 520.511 1889.19 521.638 1889.19 522.841V524.773C1889.19 526.42 1889.48 527.817 1890.05 528.963C1890.62 530.099 1891.42 530.966 1892.45 531.562C1893.47 532.15 1894.66 532.443 1896.01 532.443C1896.89 532.443 1897.69 532.32 1898.4 532.074C1899.12 531.818 1899.74 531.439 1900.26 530.938C1900.78 530.426 1901.18 529.792 1901.47 529.034L1904.71 529.943C1904.36 531.042 1903.79 532.008 1902.99 532.841C1902.18 533.665 1901.19 534.309 1900 534.773C1898.82 535.227 1897.49 535.455 1896.01 535.455Z" fill="#292929"/>
<path d="M181.591 445.909V475H178.182L162.33 452.159H162.045V475H158.523V445.909H161.932L177.841 468.807H178.125V445.909H181.591ZM201.055 466.08V453.182H204.408V475H201.055V471.307H200.828C200.317 472.415 199.521 473.357 198.442 474.134C197.362 474.901 195.999 475.284 194.351 475.284C192.987 475.284 191.775 474.986 190.714 474.389C189.654 473.783 188.821 472.874 188.214 471.662C187.608 470.44 187.305 468.902 187.305 467.045V453.182H190.658V466.818C190.658 468.409 191.103 469.678 191.993 470.625C192.892 471.572 194.038 472.045 195.43 472.045C196.264 472.045 197.111 471.832 197.973 471.406C198.844 470.98 199.573 470.327 200.16 469.446C200.757 468.565 201.055 467.443 201.055 466.08ZM212.168 453.182L217.395 462.102L222.622 453.182H226.486L219.44 464.091L226.486 475H222.622L217.395 466.534L212.168 475H208.304L215.236 464.091L208.304 453.182H212.168ZM239.878 453.182V456.023H228.571V453.182H239.878ZM231.866 447.955H235.219V468.75C235.219 469.697 235.356 470.407 235.631 470.881C235.915 471.345 236.275 471.657 236.71 471.818C237.155 471.97 237.624 472.045 238.116 472.045C238.486 472.045 238.789 472.027 239.025 471.989C239.262 471.941 239.452 471.903 239.594 471.875L240.275 474.886C240.048 474.972 239.731 475.057 239.324 475.142C238.917 475.237 238.4 475.284 237.775 475.284C236.829 475.284 235.9 475.08 234.991 474.673C234.092 474.266 233.344 473.646 232.747 472.812C232.16 471.979 231.866 470.928 231.866 469.659V447.955ZM246.484 475.227C245.783 475.227 245.181 474.976 244.68 474.474C244.178 473.973 243.927 473.371 243.927 472.67C243.927 471.97 244.178 471.368 244.68 470.866C245.181 470.365 245.783 470.114 246.484 470.114C247.184 470.114 247.786 470.365 248.288 470.866C248.789 471.368 249.04 471.97 249.04 472.67C249.04 473.134 248.922 473.561 248.685 473.949C248.458 474.337 248.15 474.65 247.762 474.886C247.383 475.114 246.957 475.227 246.484 475.227ZM254.176 453.182H257.528V476.591C257.528 477.936 257.296 479.1 256.832 480.085C256.378 481.07 255.686 481.832 254.758 482.372C253.84 482.912 252.68 483.182 251.278 483.182C251.165 483.182 251.051 483.182 250.937 483.182C250.824 483.182 250.71 483.182 250.596 483.182V480.057C250.71 480.057 250.814 480.057 250.909 480.057C251.004 480.057 251.108 480.057 251.221 480.057C252.244 480.057 252.992 479.754 253.466 479.148C253.939 478.551 254.176 477.699 254.176 476.591V453.182ZM255.824 449.545C255.17 449.545 254.607 449.323 254.133 448.878C253.669 448.433 253.437 447.898 253.437 447.273C253.437 446.648 253.669 446.113 254.133 445.668C254.607 445.223 255.17 445 255.824 445C256.477 445 257.036 445.223 257.5 445.668C257.973 446.113 258.21 446.648 258.21 447.273C258.21 447.898 257.973 448.433 257.5 448.878C257.036 449.323 256.477 449.545 255.824 449.545ZM278.243 458.068L275.231 458.92C275.042 458.419 274.763 457.931 274.393 457.457C274.033 456.974 273.541 456.577 272.916 456.264C272.291 455.952 271.491 455.795 270.515 455.795C269.18 455.795 268.068 456.103 267.177 456.719C266.297 457.325 265.856 458.097 265.856 459.034C265.856 459.867 266.159 460.526 266.765 461.009C267.372 461.491 268.318 461.894 269.606 462.216L272.845 463.011C274.796 463.485 276.249 464.209 277.206 465.185C278.162 466.151 278.64 467.396 278.64 468.92C278.64 470.17 278.281 471.288 277.561 472.273C276.851 473.258 275.856 474.034 274.578 474.602C273.3 475.17 271.813 475.455 270.118 475.455C267.892 475.455 266.05 474.972 264.592 474.006C263.134 473.04 262.211 471.629 261.822 469.773L265.004 468.977C265.307 470.152 265.88 471.032 266.723 471.619C267.575 472.206 268.688 472.5 270.061 472.5C271.623 472.5 272.864 472.169 273.783 471.506C274.711 470.833 275.175 470.028 275.175 469.091C275.175 468.333 274.909 467.699 274.379 467.188C273.849 466.667 273.034 466.278 271.936 466.023L268.3 465.17C266.301 464.697 264.834 463.963 263.896 462.969C262.968 461.965 262.504 460.71 262.504 459.205C262.504 457.973 262.85 456.884 263.541 455.938C264.242 454.991 265.193 454.247 266.396 453.707C267.608 453.168 268.981 452.898 270.515 452.898C272.675 452.898 274.37 453.371 275.601 454.318C276.841 455.265 277.722 456.515 278.243 458.068ZM156.932 509.034V505.909H178.75V509.034H169.602V535H166.08V509.034H156.932ZM182.511 543.182C181.943 543.182 181.437 543.134 180.991 543.04C180.546 542.955 180.239 542.869 180.068 542.784L180.92 539.83C181.735 540.038 182.455 540.114 183.08 540.057C183.705 540 184.258 539.721 184.741 539.219C185.234 538.726 185.684 537.926 186.091 536.818L186.716 535.114L178.648 513.182H182.284L188.307 530.568H188.534L194.557 513.182H198.193L188.932 538.182C188.515 539.309 187.999 540.241 187.383 540.98C186.768 541.728 186.053 542.282 185.239 542.642C184.434 543.002 183.525 543.182 182.511 543.182ZM201.738 543.182V513.182H204.977V516.648H205.374C205.62 516.269 205.961 515.786 206.397 515.199C206.842 514.602 207.477 514.072 208.3 513.608C209.134 513.134 210.261 512.898 211.681 512.898C213.518 512.898 215.137 513.357 216.539 514.276C217.941 515.194 219.034 516.496 219.82 518.182C220.606 519.867 220.999 521.856 220.999 524.148C220.999 526.458 220.606 528.461 219.82 530.156C219.034 531.842 217.945 533.149 216.553 534.077C215.161 534.995 213.556 535.455 211.738 535.455C210.336 535.455 209.214 535.223 208.371 534.759C207.529 534.285 206.88 533.75 206.425 533.153C205.971 532.547 205.62 532.045 205.374 531.648H205.09V543.182H201.738ZM205.033 524.091C205.033 525.739 205.275 527.192 205.758 528.452C206.241 529.702 206.946 530.682 207.874 531.392C208.802 532.093 209.939 532.443 211.283 532.443C212.685 532.443 213.854 532.074 214.792 531.335C215.739 530.587 216.449 529.583 216.923 528.324C217.405 527.055 217.647 525.644 217.647 524.091C217.647 522.557 217.41 521.174 216.937 519.943C216.473 518.703 215.767 517.723 214.82 517.003C213.883 516.274 212.704 515.909 211.283 515.909C209.92 515.909 208.774 516.255 207.846 516.946C206.918 517.628 206.217 518.584 205.744 519.815C205.27 521.037 205.033 522.462 205.033 524.091ZM234.381 535.455C232.278 535.455 230.465 534.991 228.94 534.062C227.425 533.125 226.256 531.818 225.432 530.142C224.617 528.456 224.21 526.496 224.21 524.261C224.21 522.027 224.617 520.057 225.432 518.352C226.256 516.638 227.401 515.303 228.869 514.347C230.347 513.381 232.07 512.898 234.04 512.898C235.176 512.898 236.298 513.087 237.406 513.466C238.514 513.845 239.523 514.46 240.432 515.312C241.341 516.155 242.065 517.273 242.605 518.665C243.145 520.057 243.415 521.771 243.415 523.807V525.227H226.597V522.33H240.006C240.006 521.098 239.759 520 239.267 519.034C238.784 518.068 238.093 517.306 237.193 516.747C236.303 516.188 235.252 515.909 234.04 515.909C232.704 515.909 231.549 516.241 230.574 516.903C229.608 517.557 228.864 518.409 228.344 519.46C227.823 520.511 227.562 521.638 227.562 522.841V524.773C227.562 526.42 227.847 527.817 228.415 528.963C228.992 530.099 229.793 530.966 230.815 531.562C231.838 532.15 233.026 532.443 234.381 532.443C235.261 532.443 236.057 532.32 236.767 532.074C237.487 531.818 238.107 531.439 238.628 530.938C239.149 530.426 239.551 529.792 239.835 529.034L243.074 529.943C242.733 531.042 242.16 532.008 241.355 532.841C240.55 533.665 239.556 534.309 238.372 534.773C237.188 535.227 235.858 535.455 234.381 535.455ZM263.998 513.182C263.827 511.742 263.136 510.625 261.924 509.83C260.712 509.034 259.225 508.636 257.464 508.636C256.176 508.636 255.049 508.845 254.083 509.261C253.127 509.678 252.378 510.251 251.839 510.98C251.308 511.709 251.043 512.538 251.043 513.466C251.043 514.242 251.228 514.91 251.597 515.469C251.976 516.018 252.459 516.477 253.046 516.847C253.633 517.206 254.249 517.505 254.893 517.741C255.537 517.969 256.128 518.153 256.668 518.295L259.623 519.091C260.38 519.29 261.223 519.564 262.151 519.915C263.089 520.265 263.984 520.743 264.836 521.349C265.698 521.946 266.408 522.713 266.967 523.651C267.525 524.588 267.805 525.739 267.805 527.102C267.805 528.674 267.393 530.095 266.569 531.364C265.754 532.633 264.561 533.641 262.989 534.389C261.427 535.137 259.528 535.511 257.293 535.511C255.21 535.511 253.406 535.175 251.881 534.503C250.366 533.83 249.173 532.893 248.302 531.69C247.44 530.488 246.952 529.091 246.839 527.5H250.475C250.57 528.598 250.939 529.508 251.583 530.227C252.236 530.937 253.06 531.468 254.055 531.818C255.058 532.159 256.138 532.33 257.293 532.33C258.638 532.33 259.845 532.112 260.915 531.676C261.985 531.231 262.833 530.616 263.458 529.83C264.083 529.034 264.395 528.106 264.395 527.045C264.395 526.08 264.126 525.294 263.586 524.688C263.046 524.081 262.336 523.589 261.455 523.21C260.574 522.831 259.623 522.5 258.6 522.216L255.02 521.193C252.748 520.54 250.949 519.607 249.623 518.395C248.297 517.183 247.634 515.597 247.634 513.636C247.634 512.008 248.074 510.587 248.955 509.375C249.845 508.153 251.038 507.206 252.535 506.534C254.04 505.852 255.721 505.511 257.577 505.511C259.452 505.511 261.119 505.848 262.577 506.52C264.036 507.183 265.191 508.092 266.043 509.247C266.905 510.402 267.36 511.714 267.407 513.182H263.998ZM281.126 535.455C279.08 535.455 277.319 534.972 275.841 534.006C274.364 533.04 273.228 531.709 272.432 530.014C271.637 528.319 271.239 526.383 271.239 524.205C271.239 521.989 271.646 520.033 272.461 518.338C273.285 516.634 274.43 515.303 275.898 514.347C277.376 513.381 279.099 512.898 281.069 512.898C282.603 512.898 283.985 513.182 285.216 513.75C286.448 514.318 287.456 515.114 288.242 516.136C289.028 517.159 289.516 518.352 289.705 519.716H286.353C286.097 518.722 285.529 517.841 284.648 517.074C283.777 516.297 282.603 515.909 281.126 515.909C279.819 515.909 278.673 516.25 277.688 516.932C276.713 517.604 275.95 518.556 275.401 519.787C274.861 521.009 274.591 522.443 274.591 524.091C274.591 525.777 274.857 527.244 275.387 528.494C275.927 529.744 276.684 530.715 277.66 531.406C278.645 532.098 279.8 532.443 281.126 532.443C281.997 532.443 282.787 532.292 283.498 531.989C284.208 531.686 284.809 531.25 285.302 530.682C285.794 530.114 286.145 529.432 286.353 528.636H289.705C289.516 529.924 289.047 531.084 288.299 532.116C287.56 533.139 286.58 533.954 285.359 534.56C284.146 535.156 282.735 535.455 281.126 535.455ZM293.726 535V513.182H296.964V516.477H297.192C297.589 515.398 298.309 514.522 299.351 513.849C300.392 513.177 301.567 512.841 302.873 512.841C303.12 512.841 303.427 512.846 303.797 512.855C304.166 512.865 304.445 512.879 304.635 512.898V516.307C304.521 516.278 304.261 516.236 303.854 516.179C303.456 516.113 303.034 516.08 302.589 516.08C301.529 516.08 300.582 516.302 299.748 516.747C298.925 517.183 298.271 517.789 297.788 518.565C297.315 519.332 297.078 520.208 297.078 521.193V535H293.726ZM307.728 535V513.182H311.081V535H307.728ZM309.433 509.545C308.78 509.545 308.216 509.323 307.743 508.878C307.279 508.433 307.047 507.898 307.047 507.273C307.047 506.648 307.279 506.113 307.743 505.668C308.216 505.223 308.78 505 309.433 505C310.086 505 310.645 505.223 311.109 505.668C311.583 506.113 311.819 506.648 311.819 507.273C311.819 507.898 311.583 508.433 311.109 508.878C310.645 509.323 310.086 509.545 309.433 509.545ZM316.341 543.182V513.182H319.579V516.648H319.977C320.223 516.269 320.564 515.786 321 515.199C321.445 514.602 322.079 514.072 322.903 513.608C323.737 513.134 324.863 512.898 326.284 512.898C328.121 512.898 329.74 513.357 331.142 514.276C332.543 515.194 333.637 516.496 334.423 518.182C335.209 519.867 335.602 521.856 335.602 524.148C335.602 526.458 335.209 528.461 334.423 530.156C333.637 531.842 332.548 533.149 331.156 534.077C329.764 534.995 328.159 535.455 326.341 535.455C324.939 535.455 323.817 535.223 322.974 534.759C322.131 534.285 321.483 533.75 321.028 533.153C320.574 532.547 320.223 532.045 319.977 531.648H319.693V543.182H316.341ZM319.636 524.091C319.636 525.739 319.878 527.192 320.361 528.452C320.844 529.702 321.549 530.682 322.477 531.392C323.405 532.093 324.541 532.443 325.886 532.443C327.288 532.443 328.457 532.074 329.395 531.335C330.342 530.587 331.052 529.583 331.525 528.324C332.008 527.055 332.25 525.644 332.25 524.091C332.25 522.557 332.013 521.174 331.54 519.943C331.076 518.703 330.37 517.723 329.423 517.003C328.486 516.274 327.307 515.909 325.886 515.909C324.523 515.909 323.377 516.255 322.449 516.946C321.521 517.628 320.82 518.584 320.346 519.815C319.873 521.037 319.636 522.462 319.636 524.091ZM349.324 513.182V516.023H338.018V513.182H349.324ZM341.313 507.955H344.665V528.75C344.665 529.697 344.803 530.407 345.077 530.881C345.361 531.345 345.721 531.657 346.157 531.818C346.602 531.97 347.071 532.045 347.563 532.045C347.932 532.045 348.235 532.027 348.472 531.989C348.709 531.941 348.898 531.903 349.04 531.875L349.722 534.886C349.495 534.972 349.178 535.057 348.77 535.142C348.363 535.237 347.847 535.284 347.222 535.284C346.275 535.284 345.347 535.08 344.438 534.673C343.538 534.266 342.79 533.646 342.194 532.812C341.607 531.979 341.313 530.928 341.313 529.659V507.955ZM156.932 569.034V565.909H178.75V569.034H169.602V595H166.08V569.034H156.932ZM186.304 595.511C184.921 595.511 183.667 595.251 182.54 594.73C181.413 594.2 180.518 593.438 179.855 592.443C179.192 591.439 178.861 590.227 178.861 588.807C178.861 587.557 179.107 586.544 179.599 585.767C180.092 584.981 180.75 584.366 181.574 583.92C182.398 583.475 183.307 583.144 184.301 582.926C185.305 582.699 186.313 582.519 187.327 582.386C188.652 582.216 189.727 582.088 190.551 582.003C191.384 581.908 191.991 581.752 192.369 581.534C192.758 581.316 192.952 580.937 192.952 580.398V580.284C192.952 578.883 192.568 577.794 191.801 577.017C191.044 576.241 189.893 575.852 188.349 575.852C186.749 575.852 185.494 576.203 184.585 576.903C183.676 577.604 183.037 578.352 182.668 579.148L179.486 578.011C180.054 576.686 180.812 575.653 181.758 574.915C182.715 574.167 183.757 573.646 184.883 573.352C186.02 573.049 187.137 572.898 188.236 572.898C188.937 572.898 189.741 572.983 190.651 573.153C191.569 573.314 192.455 573.651 193.307 574.162C194.169 574.673 194.883 575.445 195.452 576.477C196.02 577.509 196.304 578.892 196.304 580.625V595H192.952V592.045H192.781C192.554 592.519 192.175 593.026 191.645 593.565C191.115 594.105 190.409 594.564 189.528 594.943C188.648 595.322 187.573 595.511 186.304 595.511ZM186.815 592.5C188.141 592.5 189.258 592.24 190.168 591.719C191.086 591.198 191.777 590.526 192.241 589.702C192.715 588.878 192.952 588.011 192.952 587.102V584.034C192.81 584.205 192.497 584.361 192.014 584.503C191.541 584.635 190.991 584.754 190.366 584.858C189.751 584.953 189.15 585.038 188.562 585.114C187.985 585.18 187.516 585.237 187.156 585.284C186.285 585.398 185.471 585.582 184.713 585.838C183.965 586.084 183.359 586.458 182.895 586.96C182.44 587.453 182.213 588.125 182.213 588.977C182.213 590.142 182.644 591.023 183.506 591.619C184.377 592.206 185.48 592.5 186.815 592.5ZM201.543 595V573.182H204.895V595H201.543ZM203.247 569.545C202.594 569.545 202.03 569.323 201.557 568.878C201.093 568.433 200.861 567.898 200.861 567.273C200.861 566.648 201.093 566.113 201.557 565.668C202.03 565.223 202.594 565 203.247 565C203.901 565 204.459 565.223 204.923 565.668C205.397 566.113 205.633 566.648 205.633 567.273C205.633 567.898 205.397 568.433 204.923 568.878C204.459 569.323 203.901 569.545 203.247 569.545ZM213.507 565.909V595H210.155V565.909H213.507ZM223.71 595L217.062 573.182H220.585L225.301 589.886H225.528L230.187 573.182H233.767L238.369 589.83H238.596L243.312 573.182H246.835L240.187 595H236.892L232.119 578.239H231.778L227.006 595H223.71ZM250.387 595V573.182H253.739V595H250.387ZM252.091 569.545C251.438 569.545 250.875 569.323 250.401 568.878C249.937 568.433 249.705 567.898 249.705 567.273C249.705 566.648 249.937 566.113 250.401 565.668C250.875 565.223 251.438 565 252.091 565C252.745 565 253.304 565.223 253.768 565.668C254.241 566.113 254.478 566.648 254.478 567.273C254.478 567.898 254.241 568.433 253.768 568.878C253.304 569.323 252.745 569.545 252.091 569.545ZM262.351 581.875V595H258.999V573.182H262.238V576.591H262.522C263.033 575.483 263.81 574.593 264.851 573.92C265.893 573.239 267.238 572.898 268.885 572.898C270.363 572.898 271.655 573.201 272.763 573.807C273.871 574.403 274.733 575.312 275.349 576.534C275.964 577.746 276.272 579.28 276.272 581.136V595H272.92V581.364C272.92 579.65 272.475 578.314 271.584 577.358C270.694 576.392 269.473 575.909 267.92 575.909C266.849 575.909 265.893 576.141 265.05 576.605C264.217 577.069 263.559 577.746 263.076 578.636C262.593 579.527 262.351 580.606 262.351 581.875ZM289.756 595.455C287.938 595.455 286.333 594.995 284.941 594.077C283.549 593.149 282.46 591.842 281.674 590.156C280.888 588.461 280.495 586.458 280.495 584.148C280.495 581.856 280.888 579.867 281.674 578.182C282.46 576.496 283.554 575.194 284.955 574.276C286.357 573.357 287.976 572.898 289.813 572.898C291.233 572.898 292.356 573.134 293.179 573.608C294.013 574.072 294.647 574.602 295.083 575.199C295.528 575.786 295.874 576.269 296.12 576.648H296.404V565.909H299.756V595H296.518V591.648H296.12C295.874 592.045 295.523 592.547 295.069 593.153C294.614 593.75 293.965 594.285 293.123 594.759C292.28 595.223 291.158 595.455 289.756 595.455ZM290.211 592.443C291.555 592.443 292.692 592.093 293.62 591.392C294.548 590.682 295.253 589.702 295.736 588.452C296.219 587.192 296.461 585.739 296.461 584.091C296.461 582.462 296.224 581.037 295.751 579.815C295.277 578.584 294.576 577.628 293.648 576.946C292.72 576.255 291.574 575.909 290.211 575.909C288.79 575.909 287.607 576.274 286.66 577.003C285.722 577.723 285.017 578.703 284.543 579.943C284.079 581.174 283.847 582.557 283.847 584.091C283.847 585.644 284.084 587.055 284.557 588.324C285.04 589.583 285.751 590.587 286.688 591.335C287.635 592.074 288.809 592.443 290.211 592.443ZM329.345 575H325.822C325.614 573.987 325.249 573.097 324.728 572.33C324.217 571.562 323.592 570.919 322.853 570.398C322.124 569.867 321.315 569.47 320.424 569.205C319.534 568.939 318.606 568.807 317.64 568.807C315.879 568.807 314.283 569.252 312.853 570.142C311.433 571.032 310.301 572.344 309.459 574.077C308.625 575.81 308.209 577.936 308.209 580.455C308.209 582.973 308.625 585.099 309.459 586.832C310.301 588.565 311.433 589.877 312.853 590.767C314.283 591.657 315.879 592.102 317.64 592.102C318.606 592.102 319.534 591.97 320.424 591.705C321.315 591.439 322.124 591.046 322.853 590.526C323.592 589.995 324.217 589.347 324.728 588.58C325.249 587.803 325.614 586.913 325.822 585.909H329.345C329.08 587.396 328.597 588.726 327.896 589.901C327.195 591.075 326.324 592.074 325.282 592.898C324.241 593.712 323.071 594.332 321.774 594.759C320.486 595.185 319.108 595.398 317.64 595.398C315.159 595.398 312.953 594.792 311.021 593.58C309.089 592.367 307.569 590.644 306.461 588.409C305.353 586.174 304.799 583.523 304.799 580.455C304.799 577.386 305.353 574.735 306.461 572.5C307.569 570.265 309.089 568.542 311.021 567.33C312.953 566.117 315.159 565.511 317.64 565.511C319.108 565.511 320.486 565.724 321.774 566.151C323.071 566.577 324.241 567.202 325.282 568.026C326.324 568.84 327.195 569.834 327.896 571.009C328.597 572.173 329.08 573.504 329.345 575ZM350.067 573.182C349.896 571.742 349.205 570.625 347.993 569.83C346.781 569.034 345.294 568.636 343.532 568.636C342.245 568.636 341.118 568.845 340.152 569.261C339.195 569.678 338.447 570.251 337.907 570.98C337.377 571.709 337.112 572.538 337.112 573.466C337.112 574.242 337.297 574.91 337.666 575.469C338.045 576.018 338.528 576.477 339.115 576.847C339.702 577.206 340.317 577.505 340.961 577.741C341.605 577.969 342.197 578.153 342.737 578.295L345.692 579.091C346.449 579.29 347.292 579.564 348.22 579.915C349.157 580.265 350.052 580.743 350.905 581.349C351.766 581.946 352.477 582.713 353.035 583.651C353.594 584.588 353.873 585.739 353.873 587.102C353.873 588.674 353.461 590.095 352.638 591.364C351.823 592.633 350.63 593.641 349.058 594.389C347.495 595.137 345.597 595.511 343.362 595.511C341.279 595.511 339.475 595.175 337.95 594.503C336.435 593.83 335.242 592.893 334.37 591.69C333.509 590.488 333.021 589.091 332.907 587.5H336.544C336.638 588.598 337.008 589.508 337.652 590.227C338.305 590.937 339.129 591.468 340.123 591.818C341.127 592.159 342.207 592.33 343.362 592.33C344.707 592.33 345.914 592.112 346.984 591.676C348.054 591.231 348.902 590.616 349.527 589.83C350.152 589.034 350.464 588.106 350.464 587.045C350.464 586.08 350.194 585.294 349.655 584.688C349.115 584.081 348.405 583.589 347.524 583.21C346.643 582.831 345.692 582.5 344.669 582.216L341.089 581.193C338.817 580.54 337.017 579.607 335.692 578.395C334.366 577.183 333.703 575.597 333.703 573.636C333.703 572.008 334.143 570.587 335.024 569.375C335.914 568.153 337.107 567.206 338.603 566.534C340.109 565.852 341.79 565.511 343.646 565.511C345.521 565.511 347.188 565.848 348.646 566.52C350.104 567.183 351.26 568.092 352.112 569.247C352.974 570.402 353.428 571.714 353.476 573.182H350.067ZM374.694 573.182C374.524 571.742 373.833 570.625 372.62 569.83C371.408 569.034 369.922 568.636 368.16 568.636C366.872 568.636 365.745 568.845 364.78 569.261C363.823 569.678 363.075 570.251 362.535 570.98C362.005 571.709 361.74 572.538 361.74 573.466C361.74 574.242 361.924 574.91 362.294 575.469C362.673 576.018 363.155 576.477 363.743 576.847C364.33 577.206 364.945 577.505 365.589 577.741C366.233 577.969 366.825 578.153 367.365 578.295L370.319 579.091C371.077 579.29 371.92 579.564 372.848 579.915C373.785 580.265 374.68 580.743 375.532 581.349C376.394 581.946 377.104 582.713 377.663 583.651C378.222 584.588 378.501 585.739 378.501 587.102C378.501 588.674 378.089 590.095 377.265 591.364C376.451 592.633 375.258 593.641 373.686 594.389C372.123 595.137 370.225 595.511 367.99 595.511C365.906 595.511 364.102 595.175 362.578 594.503C361.063 593.83 359.87 592.893 358.998 591.69C358.137 590.488 357.649 589.091 357.535 587.5H361.172C361.266 588.598 361.636 589.508 362.28 590.227C362.933 590.937 363.757 591.468 364.751 591.818C365.755 592.159 366.834 592.33 367.99 592.33C369.334 592.33 370.542 592.112 371.612 591.676C372.682 591.231 373.53 590.616 374.155 589.83C374.78 589.034 375.092 588.106 375.092 587.045C375.092 586.08 374.822 585.294 374.282 584.688C373.743 584.081 373.032 583.589 372.152 583.21C371.271 582.831 370.319 582.5 369.297 582.216L365.717 581.193C363.444 580.54 361.645 579.607 360.319 578.395C358.994 577.183 358.331 575.597 358.331 573.636C358.331 572.008 358.771 570.587 359.652 569.375C360.542 568.153 361.735 567.206 363.231 566.534C364.737 565.852 366.418 565.511 368.274 565.511C370.149 565.511 371.816 565.848 373.274 566.52C374.732 567.183 375.887 568.092 376.74 569.247C377.602 570.402 378.056 571.714 378.103 573.182H374.694Z" fill="#292929"/>
<path d="M931.591 445.909V475H928.182L912.33 452.159H912.045V475H908.523V445.909H911.932L927.841 468.807H928.125V445.909H931.591ZM946.169 475.455C944.199 475.455 942.471 474.986 940.984 474.048C939.507 473.111 938.352 471.799 937.518 470.114C936.695 468.428 936.283 466.458 936.283 464.205C936.283 461.932 936.695 459.948 937.518 458.253C938.352 456.558 939.507 455.241 940.984 454.304C942.471 453.366 944.199 452.898 946.169 452.898C948.139 452.898 949.862 453.366 951.339 454.304C952.826 455.241 953.982 456.558 954.805 458.253C955.639 459.948 956.055 461.932 956.055 464.205C956.055 466.458 955.639 468.428 954.805 470.114C953.982 471.799 952.826 473.111 951.339 474.048C949.862 474.986 948.139 475.455 946.169 475.455ZM946.169 472.443C947.665 472.443 948.896 472.06 949.862 471.293C950.828 470.526 951.543 469.517 952.007 468.267C952.471 467.017 952.703 465.663 952.703 464.205C952.703 462.746 952.471 461.387 952.007 460.128C951.543 458.868 950.828 457.85 949.862 457.074C948.896 456.297 947.665 455.909 946.169 455.909C944.673 455.909 943.442 456.297 942.476 457.074C941.51 457.85 940.795 458.868 940.331 460.128C939.867 461.387 939.635 462.746 939.635 464.205C939.635 465.663 939.867 467.017 940.331 468.267C940.795 469.517 941.51 470.526 942.476 471.293C943.442 472.06 944.673 472.443 946.169 472.443ZM968.531 475.455C966.713 475.455 965.108 474.995 963.716 474.077C962.324 473.149 961.235 471.842 960.449 470.156C959.663 468.461 959.27 466.458 959.27 464.148C959.27 461.856 959.663 459.867 960.449 458.182C961.235 456.496 962.329 455.194 963.73 454.276C965.132 453.357 966.751 452.898 968.588 452.898C970.008 452.898 971.131 453.134 971.954 453.608C972.788 454.072 973.422 454.602 973.858 455.199C974.303 455.786 974.649 456.269 974.895 456.648H975.179V445.909H978.531V475H975.293V471.648H974.895C974.649 472.045 974.298 472.547 973.844 473.153C973.389 473.75 972.74 474.285 971.898 474.759C971.055 475.223 969.933 475.455 968.531 475.455ZM968.986 472.443C970.33 472.443 971.467 472.093 972.395 471.392C973.323 470.682 974.028 469.702 974.511 468.452C974.994 467.192 975.236 465.739 975.236 464.091C975.236 462.462 974.999 461.037 974.526 459.815C974.052 458.584 973.351 457.628 972.423 456.946C971.495 456.255 970.349 455.909 968.986 455.909C967.565 455.909 966.382 456.274 965.435 457.003C964.497 457.723 963.792 458.703 963.318 459.943C962.854 461.174 962.622 462.557 962.622 464.091C962.622 465.644 962.859 467.055 963.332 468.324C963.815 469.583 964.526 470.587 965.463 471.335C966.41 472.074 967.584 472.443 968.986 472.443ZM993.404 475.455C991.302 475.455 989.488 474.991 987.964 474.062C986.449 473.125 985.279 471.818 984.455 470.142C983.641 468.456 983.234 466.496 983.234 464.261C983.234 462.027 983.641 460.057 984.455 458.352C985.279 456.638 986.425 455.303 987.893 454.347C989.37 453.381 991.093 452.898 993.063 452.898C994.199 452.898 995.322 453.087 996.43 453.466C997.538 453.845 998.546 454.46 999.455 455.312C1000.36 456.155 1001.09 457.273 1001.63 458.665C1002.17 460.057 1002.44 461.771 1002.44 463.807V465.227H985.62V462.33H999.029C999.029 461.098 998.783 460 998.29 459.034C997.807 458.068 997.116 457.306 996.217 456.747C995.326 456.188 994.275 455.909 993.063 455.909C991.728 455.909 990.573 456.241 989.597 456.903C988.631 457.557 987.888 458.409 987.367 459.46C986.846 460.511 986.586 461.638 986.586 462.841V464.773C986.586 466.42 986.87 467.817 987.438 468.963C988.016 470.099 988.816 470.966 989.839 471.562C990.861 472.15 992.05 472.443 993.404 472.443C994.285 472.443 995.08 472.32 995.79 472.074C996.51 471.818 997.13 471.439 997.651 470.938C998.172 470.426 998.574 469.792 998.859 469.034L1002.1 469.943C1001.76 471.042 1001.18 472.008 1000.38 472.841C999.574 473.665 998.579 474.309 997.396 474.773C996.212 475.227 994.881 475.455 993.404 475.455ZM1009.1 475.227C1008.4 475.227 1007.8 474.976 1007.3 474.474C1006.79 473.973 1006.54 473.371 1006.54 472.67C1006.54 471.97 1006.79 471.368 1007.3 470.866C1007.8 470.365 1008.4 470.114 1009.1 470.114C1009.8 470.114 1010.4 470.365 1010.9 470.866C1011.41 471.368 1011.66 471.97 1011.66 472.67C1011.66 473.134 1011.54 473.561 1011.3 473.949C1011.08 474.337 1010.77 474.65 1010.38 474.886C1010 475.114 1009.57 475.227 1009.1 475.227ZM1016.79 453.182H1020.15V476.591C1020.15 477.936 1019.91 479.1 1019.45 480.085C1018.99 481.07 1018.3 481.832 1017.38 482.372C1016.46 482.912 1015.3 483.182 1013.9 483.182C1013.78 483.182 1013.67 483.182 1013.55 483.182C1013.44 483.182 1013.33 483.182 1013.21 483.182V480.057C1013.33 480.057 1013.43 480.057 1013.53 480.057C1013.62 480.057 1013.72 480.057 1013.84 480.057C1014.86 480.057 1015.61 479.754 1016.08 479.148C1016.56 478.551 1016.79 477.699 1016.79 476.591V453.182ZM1018.44 449.545C1017.79 449.545 1017.22 449.323 1016.75 448.878C1016.29 448.433 1016.05 447.898 1016.05 447.273C1016.05 446.648 1016.29 446.113 1016.75 445.668C1017.22 445.223 1017.79 445 1018.44 445C1019.09 445 1019.65 445.223 1020.12 445.668C1020.59 446.113 1020.83 446.648 1020.83 447.273C1020.83 447.898 1020.59 448.433 1020.12 448.878C1019.65 449.323 1019.09 449.545 1018.44 449.545ZM1040.86 458.068L1037.85 458.92C1037.66 458.419 1037.38 457.931 1037.01 457.457C1036.65 456.974 1036.16 456.577 1035.53 456.264C1034.91 455.952 1034.11 455.795 1033.13 455.795C1031.8 455.795 1030.68 456.103 1029.79 456.719C1028.91 457.325 1028.47 458.097 1028.47 459.034C1028.47 459.867 1028.78 460.526 1029.38 461.009C1029.99 461.491 1030.94 461.894 1032.22 462.216L1035.46 463.011C1037.41 463.485 1038.87 464.209 1039.82 465.185C1040.78 466.151 1041.26 467.396 1041.26 468.92C1041.26 470.17 1040.9 471.288 1040.18 472.273C1039.47 473.258 1038.47 474.034 1037.2 474.602C1035.92 475.17 1034.43 475.455 1032.73 475.455C1030.51 475.455 1028.67 474.972 1027.21 474.006C1025.75 473.04 1024.83 471.629 1024.44 469.773L1027.62 468.977C1027.92 470.152 1028.5 471.032 1029.34 471.619C1030.19 472.206 1031.3 472.5 1032.68 472.5C1034.24 472.5 1035.48 472.169 1036.4 471.506C1037.33 470.833 1037.79 470.028 1037.79 469.091C1037.79 468.333 1037.53 467.699 1037 467.188C1036.47 466.667 1035.65 466.278 1034.55 466.023L1030.92 465.17C1028.92 464.697 1027.45 463.963 1026.51 462.969C1025.59 461.965 1025.12 460.71 1025.12 459.205C1025.12 457.973 1025.47 456.884 1026.16 455.938C1026.86 454.991 1027.81 454.247 1029.01 453.707C1030.23 453.168 1031.6 452.898 1033.13 452.898C1035.29 452.898 1036.99 453.371 1038.22 454.318C1039.46 455.265 1040.34 456.515 1040.86 458.068ZM908.523 535V505.909H926.08V509.034H912.045V518.864H925.17V521.989H912.045V531.875H926.307V535H908.523ZM933.594 513.182L938.822 522.102L944.049 513.182H947.913L940.867 524.091L947.913 535H944.049L938.822 526.534L933.594 535H929.731L936.663 524.091L929.731 513.182H933.594ZM951.816 543.182V513.182H955.055V516.648H955.452C955.699 516.269 956.039 515.786 956.475 515.199C956.92 514.602 957.555 514.072 958.378 513.608C959.212 513.134 960.339 512.898 961.759 512.898C963.596 512.898 965.216 513.357 966.617 514.276C968.019 515.194 969.112 516.496 969.898 518.182C970.684 519.867 971.077 521.856 971.077 524.148C971.077 526.458 970.684 528.461 969.898 530.156C969.112 531.842 968.023 533.149 966.631 534.077C965.239 534.995 963.634 535.455 961.816 535.455C960.414 535.455 959.292 535.223 958.45 534.759C957.607 534.285 956.958 533.75 956.503 533.153C956.049 532.547 955.699 532.045 955.452 531.648H955.168V543.182H951.816ZM955.111 524.091C955.111 525.739 955.353 527.192 955.836 528.452C956.319 529.702 957.024 530.682 957.952 531.392C958.88 532.093 960.017 532.443 961.361 532.443C962.763 532.443 963.932 532.074 964.87 531.335C965.817 530.587 966.527 529.583 967.001 528.324C967.484 527.055 967.725 525.644 967.725 524.091C967.725 522.557 967.488 521.174 967.015 519.943C966.551 518.703 965.845 517.723 964.898 517.003C963.961 516.274 962.782 515.909 961.361 515.909C959.998 515.909 958.852 516.255 957.924 516.946C956.996 517.628 956.295 518.584 955.822 519.815C955.348 521.037 955.111 522.462 955.111 524.091ZM975.311 535V513.182H978.55V516.477H978.777C979.175 515.398 979.894 514.522 980.936 513.849C981.978 513.177 983.152 512.841 984.459 512.841C984.705 512.841 985.013 512.846 985.382 512.855C985.751 512.865 986.031 512.879 986.22 512.898V516.307C986.106 516.278 985.846 516.236 985.439 516.179C985.041 516.113 984.62 516.08 984.175 516.08C983.114 516.08 982.167 516.302 981.334 516.747C980.51 517.183 979.856 517.789 979.373 518.565C978.9 519.332 978.663 520.208 978.663 521.193V535H975.311ZM997.797 535.455C995.695 535.455 993.882 534.991 992.357 534.062C990.842 533.125 989.672 531.818 988.849 530.142C988.034 528.456 987.627 526.496 987.627 524.261C987.627 522.027 988.034 520.057 988.849 518.352C989.672 516.638 990.818 515.303 992.286 514.347C993.763 513.381 995.487 512.898 997.457 512.898C998.593 512.898 999.715 513.087 1000.82 513.466C1001.93 513.845 1002.94 514.46 1003.85 515.312C1004.76 516.155 1005.48 517.273 1006.02 518.665C1006.56 520.057 1006.83 521.771 1006.83 523.807V525.227H990.013V522.33H1003.42C1003.42 521.098 1003.18 520 1002.68 519.034C1002.2 518.068 1001.51 517.306 1000.61 516.747C999.72 516.188 998.669 515.909 997.457 515.909C996.121 515.909 994.966 516.241 993.991 516.903C993.025 517.557 992.281 518.409 991.761 519.46C991.24 520.511 990.979 521.638 990.979 522.841V524.773C990.979 526.42 991.263 527.817 991.832 528.963C992.409 530.099 993.209 530.966 994.232 531.562C995.255 532.15 996.443 532.443 997.797 532.443C998.678 532.443 999.474 532.32 1000.18 532.074C1000.9 531.818 1001.52 531.439 1002.04 530.938C1002.57 530.426 1002.97 529.792 1003.25 529.034L1006.49 529.943C1006.15 531.042 1005.58 532.008 1004.77 532.841C1003.97 533.665 1002.97 534.309 1001.79 534.773C1000.61 535.227 999.275 535.455 997.797 535.455ZM1026.51 518.068L1023.49 518.92C1023.3 518.419 1023.03 517.931 1022.66 517.457C1022.3 516.974 1021.8 516.577 1021.18 516.264C1020.55 515.952 1019.75 515.795 1018.78 515.795C1017.44 515.795 1016.33 516.103 1015.44 516.719C1014.56 517.325 1014.12 518.097 1014.12 519.034C1014.12 519.867 1014.42 520.526 1015.03 521.009C1015.63 521.491 1016.58 521.894 1017.87 522.216L1021.11 523.011C1023.06 523.485 1024.51 524.209 1025.47 525.185C1026.43 526.151 1026.9 527.396 1026.9 528.92C1026.9 530.17 1026.54 531.288 1025.82 532.273C1025.11 533.258 1024.12 534.034 1022.84 534.602C1021.56 535.17 1020.08 535.455 1018.38 535.455C1016.16 535.455 1014.31 534.972 1012.85 534.006C1011.4 533.04 1010.47 531.629 1010.09 529.773L1013.27 528.977C1013.57 530.152 1014.14 531.032 1014.99 531.619C1015.84 532.206 1016.95 532.5 1018.32 532.5C1019.89 532.5 1021.13 532.169 1022.05 531.506C1022.97 530.833 1023.44 530.028 1023.44 529.091C1023.44 528.333 1023.17 527.699 1022.64 527.188C1022.11 526.667 1021.3 526.278 1020.2 526.023L1016.56 525.17C1014.56 524.697 1013.1 523.963 1012.16 522.969C1011.23 521.965 1010.77 520.71 1010.77 519.205C1010.77 517.973 1011.11 516.884 1011.8 515.938C1012.5 514.991 1013.46 514.247 1014.66 513.707C1015.87 513.168 1017.24 512.898 1018.78 512.898C1020.94 512.898 1022.63 513.371 1023.86 514.318C1025.1 515.265 1025.98 516.515 1026.51 518.068ZM1046.52 518.068L1043.51 518.92C1043.32 518.419 1043.04 517.931 1042.67 517.457C1042.31 516.974 1041.82 516.577 1041.2 516.264C1040.57 515.952 1039.77 515.795 1038.8 515.795C1037.46 515.795 1036.35 516.103 1035.46 516.719C1034.58 517.325 1034.14 518.097 1034.14 519.034C1034.14 519.867 1034.44 520.526 1035.05 521.009C1035.65 521.491 1036.6 521.894 1037.89 522.216L1041.13 523.011C1043.08 523.485 1044.53 524.209 1045.49 525.185C1046.44 526.151 1046.92 527.396 1046.92 528.92C1046.92 530.17 1046.56 531.288 1045.84 532.273C1045.13 533.258 1044.14 534.034 1042.86 534.602C1041.58 535.17 1040.09 535.455 1038.4 535.455C1036.17 535.455 1034.33 534.972 1032.87 534.006C1031.42 533.04 1030.49 531.629 1030.1 529.773L1033.29 528.977C1033.59 530.152 1034.16 531.032 1035 531.619C1035.86 532.206 1036.97 532.5 1038.34 532.5C1039.9 532.5 1041.15 532.169 1042.06 531.506C1042.99 530.833 1043.46 530.028 1043.46 529.091C1043.46 528.333 1043.19 527.699 1042.66 527.188C1042.13 526.667 1041.32 526.278 1040.22 526.023L1036.58 525.17C1034.58 524.697 1033.11 523.963 1032.18 522.969C1031.25 521.965 1030.79 520.71 1030.79 519.205C1030.79 517.973 1031.13 516.884 1031.82 515.938C1032.52 514.991 1033.47 514.247 1034.68 513.707C1035.89 513.168 1037.26 512.898 1038.8 512.898C1040.96 512.898 1042.65 513.371 1043.88 514.318C1045.12 515.265 1046 516.515 1046.52 518.068ZM1053.53 535.227C1052.83 535.227 1052.23 534.976 1051.73 534.474C1051.23 533.973 1050.97 533.371 1050.97 532.67C1050.97 531.97 1051.23 531.368 1051.73 530.866C1052.23 530.365 1052.83 530.114 1053.53 530.114C1054.23 530.114 1054.83 530.365 1055.34 530.866C1055.84 531.368 1056.09 531.97 1056.09 532.67C1056.09 533.134 1055.97 533.561 1055.73 533.949C1055.51 534.337 1055.2 534.65 1054.81 534.886C1054.43 535.114 1054 535.227 1053.53 535.227ZM1061.22 513.182H1064.58V536.591C1064.58 537.936 1064.34 539.1 1063.88 540.085C1063.43 541.07 1062.73 541.832 1061.81 542.372C1060.89 542.912 1059.73 543.182 1058.33 543.182C1058.21 543.182 1058.1 543.182 1057.98 543.182C1057.87 543.182 1057.76 543.182 1057.64 543.182V540.057C1057.76 540.057 1057.86 540.057 1057.96 540.057C1058.05 540.057 1058.16 540.057 1058.27 540.057C1059.29 540.057 1060.04 539.754 1060.51 539.148C1060.99 538.551 1061.22 537.699 1061.22 536.591V513.182ZM1062.87 509.545C1062.22 509.545 1061.65 509.323 1061.18 508.878C1060.72 508.433 1060.48 507.898 1060.48 507.273C1060.48 506.648 1060.72 506.113 1061.18 505.668C1061.65 505.223 1062.22 505 1062.87 505C1063.52 505 1064.08 505.223 1064.55 505.668C1065.02 506.113 1065.26 506.648 1065.26 507.273C1065.26 507.898 1065.02 508.433 1064.55 508.878C1064.08 509.323 1063.52 509.545 1062.87 509.545ZM1085.29 518.068L1082.28 518.92C1082.09 518.419 1081.81 517.931 1081.44 517.457C1081.08 516.974 1080.59 516.577 1079.96 516.264C1079.34 515.952 1078.54 515.795 1077.56 515.795C1076.23 515.795 1075.12 516.103 1074.22 516.719C1073.34 517.325 1072.9 518.097 1072.9 519.034C1072.9 519.867 1073.21 520.526 1073.81 521.009C1074.42 521.491 1075.37 521.894 1076.65 522.216L1079.89 523.011C1081.84 523.485 1083.3 524.209 1084.25 525.185C1085.21 526.151 1085.69 527.396 1085.69 528.92C1085.69 530.17 1085.33 531.288 1084.61 532.273C1083.9 533.258 1082.9 534.034 1081.63 534.602C1080.35 535.17 1078.86 535.455 1077.17 535.455C1074.94 535.455 1073.1 534.972 1071.64 534.006C1070.18 533.04 1069.26 531.629 1068.87 529.773L1072.05 528.977C1072.35 530.152 1072.93 531.032 1073.77 531.619C1074.62 532.206 1075.74 532.5 1077.11 532.5C1078.67 532.5 1079.91 532.169 1080.83 531.506C1081.76 530.833 1082.22 530.028 1082.22 529.091C1082.22 528.333 1081.96 527.699 1081.43 527.188C1080.9 526.667 1080.08 526.278 1078.98 526.023L1075.35 525.17C1073.35 524.697 1071.88 523.963 1070.94 522.969C1070.02 521.965 1069.55 520.71 1069.55 519.205C1069.55 517.973 1069.9 516.884 1070.59 515.938C1071.29 514.991 1072.24 514.247 1073.44 513.707C1074.66 513.168 1076.03 512.898 1077.56 512.898C1079.72 512.898 1081.42 513.371 1082.65 514.318C1083.89 515.265 1084.77 516.515 1085.29 518.068ZM906.932 569.034V565.909H928.75V569.034H919.602V595H916.08V569.034H906.932ZM932.511 603.182C931.943 603.182 931.437 603.134 930.991 603.04C930.546 602.955 930.239 602.869 930.068 602.784L930.92 599.83C931.735 600.038 932.455 600.114 933.08 600.057C933.705 600 934.258 599.721 934.741 599.219C935.234 598.726 935.684 597.926 936.091 596.818L936.716 595.114L928.648 573.182H932.284L938.307 590.568H938.534L944.557 573.182H948.193L938.932 598.182C938.515 599.309 937.999 600.241 937.383 600.98C936.768 601.728 936.053 602.282 935.239 602.642C934.434 603.002 933.525 603.182 932.511 603.182ZM951.738 603.182V573.182H954.977V576.648H955.374C955.62 576.269 955.961 575.786 956.397 575.199C956.842 574.602 957.477 574.072 958.3 573.608C959.134 573.134 960.261 572.898 961.681 572.898C963.518 572.898 965.137 573.357 966.539 574.276C967.941 575.194 969.034 576.496 969.82 578.182C970.606 579.867 970.999 581.856 970.999 584.148C970.999 586.458 970.606 588.461 969.82 590.156C969.034 591.842 967.945 593.149 966.553 594.077C965.161 594.995 963.556 595.455 961.738 595.455C960.336 595.455 959.214 595.223 958.371 594.759C957.529 594.285 956.88 593.75 956.425 593.153C955.971 592.547 955.62 592.045 955.374 591.648H955.09V603.182H951.738ZM955.033 584.091C955.033 585.739 955.275 587.192 955.758 588.452C956.241 589.702 956.946 590.682 957.874 591.392C958.802 592.093 959.939 592.443 961.283 592.443C962.685 592.443 963.854 592.074 964.792 591.335C965.739 590.587 966.449 589.583 966.923 588.324C967.405 587.055 967.647 585.644 967.647 584.091C967.647 582.557 967.41 581.174 966.937 579.943C966.473 578.703 965.767 577.723 964.82 577.003C963.883 576.274 962.704 575.909 961.283 575.909C959.92 575.909 958.774 576.255 957.846 576.946C956.918 577.628 956.217 578.584 955.744 579.815C955.27 581.037 955.033 582.462 955.033 584.091ZM984.381 595.455C982.278 595.455 980.465 594.991 978.94 594.062C977.425 593.125 976.256 591.818 975.432 590.142C974.617 588.456 974.21 586.496 974.21 584.261C974.21 582.027 974.617 580.057 975.432 578.352C976.256 576.638 977.401 575.303 978.869 574.347C980.347 573.381 982.07 572.898 984.04 572.898C985.176 572.898 986.298 573.087 987.406 573.466C988.514 573.845 989.523 574.46 990.432 575.312C991.341 576.155 992.065 577.273 992.605 578.665C993.145 580.057 993.415 581.771 993.415 583.807V585.227H976.597V582.33H990.006C990.006 581.098 989.759 580 989.267 579.034C988.784 578.068 988.093 577.306 987.193 576.747C986.303 576.188 985.252 575.909 984.04 575.909C982.704 575.909 981.549 576.241 980.574 576.903C979.608 577.557 978.864 578.409 978.344 579.46C977.823 580.511 977.562 581.638 977.562 582.841V584.773C977.562 586.42 977.847 587.817 978.415 588.963C978.992 590.099 979.793 590.966 980.815 591.562C981.838 592.15 983.026 592.443 984.381 592.443C985.261 592.443 986.057 592.32 986.767 592.074C987.487 591.818 988.107 591.439 988.628 590.938C989.149 590.426 989.551 589.792 989.835 589.034L993.074 589.943C992.733 591.042 992.16 592.008 991.355 592.841C990.55 593.665 989.556 594.309 988.372 594.773C987.188 595.227 985.858 595.455 984.381 595.455ZM1014 573.182C1013.83 571.742 1013.14 570.625 1011.92 569.83C1010.71 569.034 1009.23 568.636 1007.46 568.636C1006.18 568.636 1005.05 568.845 1004.08 569.261C1003.13 569.678 1002.38 570.251 1001.84 570.98C1001.31 571.709 1001.04 572.538 1001.04 573.466C1001.04 574.242 1001.23 574.91 1001.6 575.469C1001.98 576.018 1002.46 576.477 1003.05 576.847C1003.63 577.206 1004.25 577.505 1004.89 577.741C1005.54 577.969 1006.13 578.153 1006.67 578.295L1009.62 579.091C1010.38 579.29 1011.22 579.564 1012.15 579.915C1013.09 580.265 1013.98 580.743 1014.84 581.349C1015.7 581.946 1016.41 582.713 1016.97 583.651C1017.53 584.588 1017.8 585.739 1017.8 587.102C1017.8 588.674 1017.39 590.095 1016.57 591.364C1015.75 592.633 1014.56 593.641 1012.99 594.389C1011.43 595.137 1009.53 595.511 1007.29 595.511C1005.21 595.511 1003.41 595.175 1001.88 594.503C1000.37 593.83 999.173 592.893 998.302 591.69C997.44 590.488 996.952 589.091 996.839 587.5H1000.48C1000.57 588.598 1000.94 589.508 1001.58 590.227C1002.24 590.937 1003.06 591.468 1004.05 591.818C1005.06 592.159 1006.14 592.33 1007.29 592.33C1008.64 592.33 1009.85 592.112 1010.92 591.676C1011.99 591.231 1012.83 590.616 1013.46 589.83C1014.08 589.034 1014.4 588.106 1014.4 587.045C1014.4 586.08 1014.13 585.294 1013.59 584.688C1013.05 584.081 1012.34 583.589 1011.46 583.21C1010.57 582.831 1009.62 582.5 1008.6 582.216L1005.02 581.193C1002.75 580.54 1000.95 579.607 999.623 578.395C998.297 577.183 997.634 575.597 997.634 573.636C997.634 572.008 998.074 570.587 998.955 569.375C999.845 568.153 1001.04 567.206 1002.53 566.534C1004.04 565.852 1005.72 565.511 1007.58 565.511C1009.45 565.511 1011.12 565.848 1012.58 566.52C1014.04 567.183 1015.19 568.092 1016.04 569.247C1016.9 570.402 1017.36 571.714 1017.41 573.182H1014ZM1031.13 595.455C1029.08 595.455 1027.32 594.972 1025.84 594.006C1024.36 593.04 1023.23 591.709 1022.43 590.014C1021.64 588.319 1021.24 586.383 1021.24 584.205C1021.24 581.989 1021.65 580.033 1022.46 578.338C1023.28 576.634 1024.43 575.303 1025.9 574.347C1027.38 573.381 1029.1 572.898 1031.07 572.898C1032.6 572.898 1033.99 573.182 1035.22 573.75C1036.45 574.318 1037.46 575.114 1038.24 576.136C1039.03 577.159 1039.52 578.352 1039.71 579.716H1036.35C1036.1 578.722 1035.53 577.841 1034.65 577.074C1033.78 576.297 1032.6 575.909 1031.13 575.909C1029.82 575.909 1028.67 576.25 1027.69 576.932C1026.71 577.604 1025.95 578.556 1025.4 579.787C1024.86 581.009 1024.59 582.443 1024.59 584.091C1024.59 585.777 1024.86 587.244 1025.39 588.494C1025.93 589.744 1026.68 590.715 1027.66 591.406C1028.64 592.098 1029.8 592.443 1031.13 592.443C1032 592.443 1032.79 592.292 1033.5 591.989C1034.21 591.686 1034.81 591.25 1035.3 590.682C1035.79 590.114 1036.14 589.432 1036.35 588.636H1039.71C1039.52 589.924 1039.05 591.084 1038.3 592.116C1037.56 593.139 1036.58 593.954 1035.36 594.56C1034.15 595.156 1032.74 595.455 1031.13 595.455ZM1043.73 595V573.182H1046.96V576.477H1047.19C1047.59 575.398 1048.31 574.522 1049.35 573.849C1050.39 573.177 1051.57 572.841 1052.87 572.841C1053.12 572.841 1053.43 572.846 1053.8 572.855C1054.17 572.865 1054.45 572.879 1054.63 572.898V576.307C1054.52 576.278 1054.26 576.236 1053.85 576.179C1053.46 576.113 1053.03 576.08 1052.59 576.08C1051.53 576.08 1050.58 576.302 1049.75 576.747C1048.92 577.183 1048.27 577.789 1047.79 578.565C1047.31 579.332 1047.08 580.208 1047.08 581.193V595H1043.73ZM1057.73 595V573.182H1061.08V595H1057.73ZM1059.43 569.545C1058.78 569.545 1058.22 569.323 1057.74 568.878C1057.28 568.433 1057.05 567.898 1057.05 567.273C1057.05 566.648 1057.28 566.113 1057.74 565.668C1058.22 565.223 1058.78 565 1059.43 565C1060.09 565 1060.65 565.223 1061.11 565.668C1061.58 566.113 1061.82 566.648 1061.82 567.273C1061.82 567.898 1061.58 568.433 1061.11 568.878C1060.65 569.323 1060.09 569.545 1059.43 569.545ZM1066.34 603.182V573.182H1069.58V576.648H1069.98C1070.22 576.269 1070.56 575.786 1071 575.199C1071.44 574.602 1072.08 574.072 1072.9 573.608C1073.74 573.134 1074.86 572.898 1076.28 572.898C1078.12 572.898 1079.74 573.357 1081.14 574.276C1082.54 575.194 1083.64 576.496 1084.42 578.182C1085.21 579.867 1085.6 581.856 1085.6 584.148C1085.6 586.458 1085.21 588.461 1084.42 590.156C1083.64 591.842 1082.55 593.149 1081.16 594.077C1079.76 594.995 1078.16 595.455 1076.34 595.455C1074.94 595.455 1073.82 595.223 1072.97 594.759C1072.13 594.285 1071.48 593.75 1071.03 593.153C1070.57 592.547 1070.22 592.045 1069.98 591.648H1069.69V603.182H1066.34ZM1069.64 584.091C1069.64 585.739 1069.88 587.192 1070.36 588.452C1070.84 589.702 1071.55 590.682 1072.48 591.392C1073.41 592.093 1074.54 592.443 1075.89 592.443C1077.29 592.443 1078.46 592.074 1079.39 591.335C1080.34 590.587 1081.05 589.583 1081.53 588.324C1082.01 587.055 1082.25 585.644 1082.25 584.091C1082.25 582.557 1082.01 581.174 1081.54 579.943C1081.08 578.703 1080.37 577.723 1079.42 577.003C1078.49 576.274 1077.31 575.909 1075.89 575.909C1074.52 575.909 1073.38 576.255 1072.45 576.946C1071.52 577.628 1070.82 578.584 1070.35 579.815C1069.87 581.037 1069.64 582.462 1069.64 584.091ZM1099.32 573.182V576.023H1088.02V573.182H1099.32ZM1091.31 567.955H1094.67V588.75C1094.67 589.697 1094.8 590.407 1095.08 590.881C1095.36 591.345 1095.72 591.657 1096.16 591.818C1096.6 591.97 1097.07 592.045 1097.56 592.045C1097.93 592.045 1098.24 592.027 1098.47 591.989C1098.71 591.941 1098.9 591.903 1099.04 591.875L1099.72 594.886C1099.49 594.972 1099.18 595.057 1098.77 595.142C1098.36 595.237 1097.85 595.284 1097.22 595.284C1096.28 595.284 1095.35 595.08 1094.44 594.673C1093.54 594.266 1092.79 593.646 1092.19 592.812C1091.61 591.979 1091.31 590.928 1091.31 589.659V567.955Z" fill="#292929"/>
<path d="M1050.02 290V260.909H1060.19C1062.22 260.909 1063.89 261.259 1065.21 261.96C1066.52 262.652 1067.5 263.584 1068.15 264.759C1068.79 265.923 1069.11 267.216 1069.11 268.636C1069.11 269.886 1068.89 270.919 1068.45 271.733C1068.01 272.547 1067.43 273.191 1066.71 273.665C1066 274.138 1065.23 274.489 1064.4 274.716V275C1065.29 275.057 1066.18 275.369 1067.08 275.938C1067.98 276.506 1068.73 277.32 1069.34 278.381C1069.95 279.441 1070.25 280.739 1070.25 282.273C1070.25 283.731 1069.92 285.043 1069.26 286.207C1068.59 287.372 1067.55 288.295 1066.12 288.977C1064.69 289.659 1062.83 290 1060.53 290H1050.02ZM1053.54 286.875H1060.53C1062.83 286.875 1064.47 286.43 1065.43 285.54C1066.41 284.64 1066.9 283.551 1066.9 282.273C1066.9 281.288 1066.65 280.379 1066.14 279.545C1065.64 278.703 1064.93 278.03 1064 277.528C1063.07 277.017 1061.97 276.761 1060.7 276.761H1053.54V286.875ZM1053.54 273.693H1060.08C1061.14 273.693 1062.1 273.485 1062.95 273.068C1063.81 272.652 1064.49 272.064 1064.99 271.307C1065.51 270.549 1065.76 269.659 1065.76 268.636C1065.76 267.358 1065.32 266.274 1064.43 265.384C1063.54 264.484 1062.12 264.034 1060.19 264.034H1053.54V273.693ZM1081.12 290.511C1079.74 290.511 1078.49 290.251 1077.36 289.73C1076.23 289.2 1075.34 288.438 1074.67 287.443C1074.01 286.439 1073.68 285.227 1073.68 283.807C1073.68 282.557 1073.93 281.544 1074.42 280.767C1074.91 279.981 1075.57 279.366 1076.39 278.92C1077.22 278.475 1078.13 278.144 1079.12 277.926C1080.12 277.699 1081.13 277.519 1082.15 277.386C1083.47 277.216 1084.55 277.088 1085.37 277.003C1086.2 276.908 1086.81 276.752 1087.19 276.534C1087.58 276.316 1087.77 275.937 1087.77 275.398V275.284C1087.77 273.883 1087.39 272.794 1086.62 272.017C1085.86 271.241 1084.71 270.852 1083.17 270.852C1081.57 270.852 1080.31 271.203 1079.4 271.903C1078.5 272.604 1077.86 273.352 1077.49 274.148L1074.31 273.011C1074.87 271.686 1075.63 270.653 1076.58 269.915C1077.53 269.167 1078.58 268.646 1079.7 268.352C1080.84 268.049 1081.96 267.898 1083.06 267.898C1083.76 267.898 1084.56 267.983 1085.47 268.153C1086.39 268.314 1087.27 268.651 1088.13 269.162C1088.99 269.673 1089.7 270.445 1090.27 271.477C1090.84 272.509 1091.12 273.892 1091.12 275.625V290H1087.77V287.045H1087.6C1087.37 287.519 1086.99 288.026 1086.46 288.565C1085.93 289.105 1085.23 289.564 1084.35 289.943C1083.47 290.322 1082.39 290.511 1081.12 290.511ZM1081.64 287.5C1082.96 287.5 1084.08 287.24 1084.99 286.719C1085.91 286.198 1086.6 285.526 1087.06 284.702C1087.53 283.878 1087.77 283.011 1087.77 282.102V279.034C1087.63 279.205 1087.32 279.361 1086.83 279.503C1086.36 279.635 1085.81 279.754 1085.19 279.858C1084.57 279.953 1083.97 280.038 1083.38 280.114C1082.8 280.18 1082.34 280.237 1081.98 280.284C1081.1 280.398 1080.29 280.582 1079.53 280.838C1078.78 281.084 1078.18 281.458 1077.71 281.96C1077.26 282.453 1077.03 283.125 1077.03 283.977C1077.03 285.142 1077.46 286.023 1078.33 286.619C1079.2 287.206 1080.3 287.5 1081.64 287.5ZM1105.23 290.455C1103.18 290.455 1101.42 289.972 1099.94 289.006C1098.46 288.04 1097.33 286.709 1096.53 285.014C1095.74 283.319 1095.34 281.383 1095.34 279.205C1095.34 276.989 1095.75 275.033 1096.56 273.338C1097.38 271.634 1098.53 270.303 1100 269.347C1101.48 268.381 1103.2 267.898 1105.17 267.898C1106.7 267.898 1108.09 268.182 1109.32 268.75C1110.55 269.318 1111.56 270.114 1112.34 271.136C1113.13 272.159 1113.62 273.352 1113.81 274.716H1110.45C1110.2 273.722 1109.63 272.841 1108.75 272.074C1107.88 271.297 1106.7 270.909 1105.23 270.909C1103.92 270.909 1102.77 271.25 1101.79 271.932C1100.81 272.604 1100.05 273.556 1099.5 274.787C1098.96 276.009 1098.69 277.443 1098.69 279.091C1098.69 280.777 1098.96 282.244 1099.49 283.494C1100.03 284.744 1100.78 285.715 1101.76 286.406C1102.74 287.098 1103.9 287.443 1105.23 287.443C1106.1 287.443 1106.89 287.292 1107.6 286.989C1108.31 286.686 1108.91 286.25 1109.4 285.682C1109.89 285.114 1110.24 284.432 1110.45 283.636H1113.81C1113.62 284.924 1113.15 286.084 1112.4 287.116C1111.66 288.139 1110.68 288.954 1109.46 289.56C1108.25 290.156 1106.84 290.455 1105.23 290.455ZM1120.95 282.045L1120.89 277.898H1121.58L1131.12 268.182H1135.27L1125.1 278.466H1124.81L1120.95 282.045ZM1117.83 290V260.909H1121.18V290H1117.83ZM1131.69 290L1123.17 279.205L1125.55 276.875L1135.95 290H1131.69ZM1146.95 290.455C1144.85 290.455 1143.04 289.991 1141.51 289.062C1140 288.125 1138.83 286.818 1138 285.142C1137.19 283.456 1136.78 281.496 1136.78 279.261C1136.78 277.027 1137.19 275.057 1138 273.352C1138.83 271.638 1139.97 270.303 1141.44 269.347C1142.92 268.381 1144.64 267.898 1146.61 267.898C1147.75 267.898 1148.87 268.087 1149.98 268.466C1151.09 268.845 1152.1 269.46 1153 270.312C1153.91 271.155 1154.64 272.273 1155.18 273.665C1155.72 275.057 1155.99 276.771 1155.99 278.807V280.227H1139.17V277.33H1152.58C1152.58 276.098 1152.33 275 1151.84 274.034C1151.36 273.068 1150.67 272.306 1149.77 271.747C1148.88 271.188 1147.82 270.909 1146.61 270.909C1145.28 270.909 1144.12 271.241 1143.15 271.903C1142.18 272.557 1141.44 273.409 1140.92 274.46C1140.4 275.511 1140.13 276.638 1140.13 277.841V279.773C1140.13 281.42 1140.42 282.817 1140.99 283.963C1141.56 285.099 1142.37 285.966 1143.39 286.562C1144.41 287.15 1145.6 287.443 1146.95 287.443C1147.83 287.443 1148.63 287.32 1149.34 287.074C1150.06 286.818 1150.68 286.439 1151.2 285.938C1151.72 285.426 1152.12 284.792 1152.41 284.034L1155.65 284.943C1155.31 286.042 1154.73 287.008 1153.93 287.841C1153.12 288.665 1152.13 289.309 1150.94 289.773C1149.76 290.227 1148.43 290.455 1146.95 290.455ZM1163.56 276.875V290H1160.21V268.182H1163.45V271.591H1163.73C1164.24 270.483 1165.02 269.593 1166.06 268.92C1167.1 268.239 1168.45 267.898 1170.09 267.898C1171.57 267.898 1172.86 268.201 1173.97 268.807C1175.08 269.403 1175.94 270.312 1176.56 271.534C1177.17 272.746 1177.48 274.28 1177.48 276.136V290H1174.13V276.364C1174.13 274.65 1173.68 273.314 1172.79 272.358C1171.9 271.392 1170.68 270.909 1169.13 270.909C1168.06 270.909 1167.1 271.141 1166.26 271.605C1165.42 272.069 1164.77 272.746 1164.28 273.636C1163.8 274.527 1163.56 275.606 1163.56 276.875ZM1190.96 290.455C1189.15 290.455 1187.54 289.995 1186.15 289.077C1184.76 288.149 1183.67 286.842 1182.88 285.156C1182.1 283.461 1181.7 281.458 1181.7 279.148C1181.7 276.856 1182.1 274.867 1182.88 273.182C1183.67 271.496 1184.76 270.194 1186.16 269.276C1187.56 268.357 1189.18 267.898 1191.02 267.898C1192.44 267.898 1193.56 268.134 1194.39 268.608C1195.22 269.072 1195.85 269.602 1196.29 270.199C1196.74 270.786 1197.08 271.269 1197.33 271.648H1197.61V260.909H1200.96V290H1197.73V286.648H1197.33C1197.08 287.045 1196.73 287.547 1196.28 288.153C1195.82 288.75 1195.17 289.285 1194.33 289.759C1193.49 290.223 1192.37 290.455 1190.96 290.455ZM1191.42 287.443C1192.76 287.443 1193.9 287.093 1194.83 286.392C1195.76 285.682 1196.46 284.702 1196.94 283.452C1197.43 282.192 1197.67 280.739 1197.67 279.091C1197.67 277.462 1197.43 276.037 1196.96 274.815C1196.48 273.584 1195.78 272.628 1194.86 271.946C1193.93 271.255 1192.78 270.909 1191.42 270.909C1190 270.909 1188.81 271.274 1187.87 272.003C1186.93 272.723 1186.22 273.703 1185.75 274.943C1185.29 276.174 1185.05 277.557 1185.05 279.091C1185.05 280.644 1185.29 282.055 1185.76 283.324C1186.25 284.583 1186.96 285.587 1187.9 286.335C1188.84 287.074 1190.02 287.443 1191.42 287.443Z" fill="white"/>
<path d="M296.829 290V260.909H314.272V264.034H300.352V273.864H312.966V276.989H300.352V290H296.829ZM318.737 290V268.182H321.976V271.477H322.203C322.601 270.398 323.32 269.522 324.362 268.849C325.404 268.177 326.578 267.841 327.885 267.841C328.131 267.841 328.439 267.846 328.808 267.855C329.177 267.865 329.457 267.879 329.646 267.898V271.307C329.532 271.278 329.272 271.236 328.865 271.179C328.467 271.113 328.046 271.08 327.601 271.08C326.54 271.08 325.593 271.302 324.76 271.747C323.936 272.183 323.282 272.789 322.799 273.565C322.326 274.332 322.089 275.208 322.089 276.193V290H318.737ZM340.939 290.455C338.97 290.455 337.241 289.986 335.755 289.048C334.277 288.111 333.122 286.799 332.289 285.114C331.465 283.428 331.053 281.458 331.053 279.205C331.053 276.932 331.465 274.948 332.289 273.253C333.122 271.558 334.277 270.241 335.755 269.304C337.241 268.366 338.97 267.898 340.939 267.898C342.909 267.898 344.633 268.366 346.11 269.304C347.597 270.241 348.752 271.558 349.576 273.253C350.409 274.948 350.826 276.932 350.826 279.205C350.826 281.458 350.409 283.428 349.576 285.114C348.752 286.799 347.597 288.111 346.11 289.048C344.633 289.986 342.909 290.455 340.939 290.455ZM340.939 287.443C342.436 287.443 343.667 287.06 344.633 286.293C345.598 285.526 346.313 284.517 346.777 283.267C347.241 282.017 347.473 280.663 347.473 279.205C347.473 277.746 347.241 276.387 346.777 275.128C346.313 273.868 345.598 272.85 344.633 272.074C343.667 271.297 342.436 270.909 340.939 270.909C339.443 270.909 338.212 271.297 337.246 272.074C336.28 272.85 335.565 273.868 335.101 275.128C334.637 276.387 334.405 277.746 334.405 279.205C334.405 280.663 334.637 282.017 335.101 283.267C335.565 284.517 336.28 285.526 337.246 286.293C338.212 287.06 339.443 287.443 340.939 287.443ZM358.415 276.875V290H355.063V268.182H358.302V271.591H358.586C359.097 270.483 359.873 269.593 360.915 268.92C361.957 268.239 363.302 267.898 364.949 267.898C366.427 267.898 367.719 268.201 368.827 268.807C369.935 269.403 370.797 270.312 371.412 271.534C372.028 272.746 372.336 274.28 372.336 276.136V290H368.983V276.364C368.983 274.65 368.538 273.314 367.648 272.358C366.758 271.392 365.536 270.909 363.983 270.909C362.913 270.909 361.957 271.141 361.114 271.605C360.281 272.069 359.623 272.746 359.14 273.636C358.657 274.527 358.415 275.606 358.415 276.875ZM387.07 268.182V271.023H375.763V268.182H387.07ZM379.059 262.955H382.411V283.75C382.411 284.697 382.548 285.407 382.823 285.881C383.107 286.345 383.467 286.657 383.902 286.818C384.347 286.97 384.816 287.045 385.309 287.045C385.678 287.045 385.981 287.027 386.218 286.989C386.454 286.941 386.644 286.903 386.786 286.875L387.468 289.886C387.24 289.972 386.923 290.057 386.516 290.142C386.109 290.237 385.593 290.284 384.968 290.284C384.021 290.284 383.093 290.08 382.184 289.673C381.284 289.266 380.536 288.646 379.939 287.812C379.352 286.979 379.059 285.928 379.059 284.659V262.955ZM400.146 290.455C398.044 290.455 396.23 289.991 394.706 289.062C393.19 288.125 392.021 286.818 391.197 285.142C390.383 283.456 389.975 281.496 389.975 279.261C389.975 277.027 390.383 275.057 391.197 273.352C392.021 271.638 393.167 270.303 394.635 269.347C396.112 268.381 397.835 267.898 399.805 267.898C400.941 267.898 402.064 268.087 403.171 268.466C404.279 268.845 405.288 269.46 406.197 270.312C407.106 271.155 407.831 272.273 408.37 273.665C408.91 275.057 409.18 276.771 409.18 278.807V280.227H392.362V277.33H405.771C405.771 276.098 405.525 275 405.032 274.034C404.549 273.068 403.858 272.306 402.958 271.747C402.068 271.188 401.017 270.909 399.805 270.909C398.47 270.909 397.314 271.241 396.339 271.903C395.373 272.557 394.63 273.409 394.109 274.46C393.588 275.511 393.328 276.638 393.328 277.841V279.773C393.328 281.42 393.612 282.817 394.18 283.963C394.758 285.099 395.558 285.966 396.581 286.562C397.603 287.15 398.792 287.443 400.146 287.443C401.027 287.443 401.822 287.32 402.532 287.074C403.252 286.818 403.872 286.439 404.393 285.938C404.914 285.426 405.316 284.792 405.6 284.034L408.839 284.943C408.498 286.042 407.925 287.008 407.12 287.841C406.315 288.665 405.321 289.309 404.137 289.773C402.954 290.227 401.623 290.455 400.146 290.455ZM416.752 276.875V290H413.399V268.182H416.638V271.591H416.922C417.434 270.483 418.21 269.593 419.252 268.92C420.293 268.239 421.638 267.898 423.286 267.898C424.763 267.898 426.056 268.201 427.164 268.807C428.272 269.403 429.133 270.312 429.749 271.534C430.364 272.746 430.672 274.28 430.672 276.136V290H427.32V276.364C427.32 274.65 426.875 273.314 425.985 272.358C425.095 271.392 423.873 270.909 422.32 270.909C421.25 270.909 420.293 271.141 419.451 271.605C418.617 272.069 417.959 272.746 417.476 273.636C416.993 274.527 416.752 275.606 416.752 276.875ZM444.157 290.455C442.338 290.455 440.733 289.995 439.341 289.077C437.949 288.149 436.86 286.842 436.074 285.156C435.288 283.461 434.895 281.458 434.895 279.148C434.895 276.856 435.288 274.867 436.074 273.182C436.86 271.496 437.954 270.194 439.355 269.276C440.757 268.357 442.376 267.898 444.213 267.898C445.634 267.898 446.756 268.134 447.58 268.608C448.413 269.072 449.048 269.602 449.483 270.199C449.928 270.786 450.274 271.269 450.52 271.648H450.804V260.909H454.157V290H450.918V286.648H450.52C450.274 287.045 449.924 287.547 449.469 288.153C449.014 288.75 448.366 289.285 447.523 289.759C446.68 290.223 445.558 290.455 444.157 290.455ZM444.611 287.443C445.956 287.443 447.092 287.093 448.02 286.392C448.948 285.682 449.654 284.702 450.137 283.452C450.62 282.192 450.861 280.739 450.861 279.091C450.861 277.462 450.624 276.037 450.151 274.815C449.677 273.584 448.977 272.628 448.049 271.946C447.121 271.255 445.975 270.909 444.611 270.909C443.191 270.909 442.007 271.274 441.06 272.003C440.122 272.723 439.417 273.703 438.943 274.943C438.479 276.174 438.247 277.557 438.247 279.091C438.247 280.644 438.484 282.055 438.958 283.324C439.441 284.583 440.151 285.587 441.088 286.335C442.035 287.074 443.21 287.443 444.611 287.443Z" fill="white"/>
<defs>
<filter id="filter0_d_4_68" x="1120" y="247.908" width="513" height="54.1836" filterUnits="userSpaceOnUse" color-interpolation-filters="sRGB">
<feFlood flood-opacity="0" result="BackgroundImageFix"/>
<feColorMatrix in="SourceAlpha" type="matrix" values="0 0 0 0 0 0 0 0 0 0 0 0 0 0 0 0 0 0 127 0" result="hardAlpha"/>
<feOffset/>
<feGaussianBlur stdDeviation="2.5"/>
<feComposite in2="hardAlpha" operator="out"/>
<feColorMatrix type="matrix" values="0 0 0 0 0 0 0 0 0 0 0 0 0 0 0 0 0 0 0.25 0"/>
<feBlend mode="normal" in2="BackgroundImageFix" result="effect1_dropShadow_4_68"/>
<feBlend mode="normal" in="SourceGraphic" in2="effect1_dropShadow_4_68" result="shape"/>
</filter>
<filter id="filter1_d_4_68" x="370" y="247.908" width="513" height="54.1836" filterUnits="userSpaceOnUse" color-interpolation-filters="sRGB">
<feFlood flood-opacity="0" result="BackgroundImageFix"/>
<feColorMatrix in="SourceAlpha" type="matrix" values="0 0 0 0 0 0 0 0 0 0 0 0 0 0 0 0 0 0 127 0" result="hardAlpha"/>
<feOffset/>
<feGaussianBlur stdDeviation="2.5"/>
<feComposite in2="hardAlpha" operator="out"/>
<feColorMatrix type="matrix" values="0 0 0 0 0 0 0 0 0 0 0 0 0 0 0 0 0 0 0.25 0"/>
<feBlend mode="normal" in2="BackgroundImageFix" result="effect1_dropShadow_4_68"/>
<feBlend mode="normal" in="SourceGraphic" in2="effect1_dropShadow_4_68" result="shape"/>
</filter>
</defs>
</svg>
